<mxfile host="Electron" modified="2023-05-27T18:04:26.846Z" agent="Mozilla/5.0 (Macintosh; Intel Mac OS X 10_15_7) AppleWebKit/537.36 (KHTML, like Gecko) draw.io/21.2.1 Chrome/112.0.5615.87 Electron/24.1.2 Safari/537.36" etag="krWNX6hjj0ixE55x6hvE" version="21.2.1" type="device">
  <diagram name="Page-1" id="H1nZVYqxkzLZFgEqRADx">
    <mxGraphModel dx="881" dy="2378" grid="1" gridSize="10" guides="1" tooltips="1" connect="1" arrows="1" fold="1" page="1" pageScale="1" pageWidth="850" pageHeight="1100" math="0" shadow="0">
      <root>
        <mxCell id="0" />
        <mxCell id="1" parent="0" />
        <mxCell id="AsBp8XiL8Dx4Y6rQVwFH-2923" value="R, W: 145, H: 144, ORDER: 13, GC: {68, 39, 38, 1, 37, 21, 19, 2, 17, 8, 15, 76, 69} " style="text;html=1;strokeColor=none;fillColor=none;align=center;verticalAlign=middle;whiteSpace=wrap;rounded=0;fontSize=24;" parent="1" vertex="1">
          <mxGeometry x="1550" width="1450" height="30" as="geometry" />
        </mxCell>
        <mxCell id="cPIrNWwGML68DfH43bNu-3518" value="R, W: 145, H: 129, ORDER: 14, GC: {60, 36, 49, 15, 21, 9, 6, 8, 41, 35, 2, 39, 69, 37} " style="text;html=1;strokeColor=none;fillColor=none;align=center;verticalAlign=middle;whiteSpace=wrap;rounded=0;fontSize=24;" vertex="1" parent="1">
          <mxGeometry x="1580" y="1580" width="1450" height="30" as="geometry" />
        </mxCell>
        <mxCell id="cPIrNWwGML68DfH43bNu-3533" value="R, W: 145, H: 111, ORDER: 14, GC: {49, 36, 60, 13, 23, 62, 20, 3, 2, 7, 5, 51, 12, 32} " style="text;html=1;strokeColor=none;fillColor=none;align=center;verticalAlign=middle;whiteSpace=wrap;rounded=0;fontSize=24;" vertex="1" parent="1">
          <mxGeometry x="1590" y="3000" width="1450" height="30" as="geometry" />
        </mxCell>
        <mxCell id="cPIrNWwGML68DfH43bNu-3548" value="R, W: 145, H: 111, ORDER: 14, GC: {51, 42, 52, 9, 33, 20, 32, 3, 17, 5, 27, 60, 36, 22} " style="text;html=1;strokeColor=none;fillColor=none;align=center;verticalAlign=middle;whiteSpace=wrap;rounded=0;fontSize=24;" vertex="1" parent="1">
          <mxGeometry x="1620" y="4250" width="1450" height="30" as="geometry" />
        </mxCell>
        <mxCell id="cPIrNWwGML68DfH43bNu-3563" value="R, W: 145, H: 109, ORDER: 14, GC: {50, 41, 54, 9, 20, 12, 11, 1, 55, 59, 17, 3, 14, 31} " style="text;html=1;strokeColor=none;fillColor=none;align=center;verticalAlign=middle;whiteSpace=wrap;rounded=0;fontSize=24;" vertex="1" parent="1">
          <mxGeometry x="1640" y="5520" width="1450" height="30" as="geometry" />
        </mxCell>
        <mxCell id="cPIrNWwGML68DfH43bNu-3578" value="R, W: 145, H: 96, ORDER: 14, GC: {43, 33, 25, 44, 14, 11, 3, 8, 10, 23, 17, 52, 53, 40} " style="text;html=1;strokeColor=none;fillColor=none;align=center;verticalAlign=middle;whiteSpace=wrap;rounded=0;fontSize=24;" vertex="1" parent="1">
          <mxGeometry x="1630" y="6760" width="1450" height="30" as="geometry" />
        </mxCell>
        <mxCell id="cPIrNWwGML68DfH43bNu-3593" value="R, W: 145, H: 138, ORDER: 18, GC: {60, 24, 28, 14, 6, 4, 33, 2, 25, 5, 8, 22, 38, 7, 18, 78, 11, 67} " style="text;html=1;strokeColor=none;fillColor=none;align=center;verticalAlign=middle;whiteSpace=wrap;rounded=0;fontSize=24;" vertex="1" parent="1">
          <mxGeometry x="1640" y="7870" width="1450" height="30" as="geometry" />
        </mxCell>
        <mxCell id="cPIrNWwGML68DfH43bNu-3612" value="R, W: 145, H: 88, ORDER: 18, GC: {36, 11, 13, 9, 2, 21, 7, 8, 16, 26, 24, 5, 38, 19, 12, 50, 52, 43} " style="text;html=1;strokeColor=none;fillColor=none;align=center;verticalAlign=middle;whiteSpace=wrap;rounded=0;fontSize=24;" vertex="1" parent="1">
          <mxGeometry x="1680" y="9370" width="1450" height="30" as="geometry" />
        </mxCell>
        <mxCell id="cPIrNWwGML68DfH43bNu-3631" value="R, W: 145, H: 130, ORDER: 20, GC: {28, 20, 18, 41, 2, 16, 8, 14, 36, 30, 38, 3, 35, 44, 12, 23, 66, 45, 11, 34} " style="text;html=1;strokeColor=none;fillColor=none;align=center;verticalAlign=middle;whiteSpace=wrap;rounded=0;fontSize=24;" vertex="1" parent="1">
          <mxGeometry x="1670" y="10380" width="1450" height="30" as="geometry" />
        </mxCell>
        <mxCell id="cPIrNWwGML68DfH43bNu-3652" value="R, W: 145, H: 144, ORDER: 20, GC: {42, 48, 36, 6, 55, 30, 24, 17, 38, 20, 21, 66, 11, 9, 8, 51, 2, 15, 13, 28} " style="text;html=1;strokeColor=none;fillColor=none;align=center;verticalAlign=middle;whiteSpace=wrap;rounded=0;fontSize=24;" vertex="1" parent="1">
          <mxGeometry x="1680" y="11830" width="1450" height="30" as="geometry" />
        </mxCell>
        <mxCell id="cPIrNWwGML68DfH43bNu-3673" value="R, W: 145, H: 65, ORDER: 21, GC: {65, 14, 10, 19, 23, 1, 8, 4, 7, 18, 23, 15, 24, 17, 6, 5, 19, 33, 25, 3, 22} " style="text;html=1;strokeColor=none;fillColor=none;align=center;verticalAlign=middle;whiteSpace=wrap;rounded=0;fontSize=24;" vertex="1" parent="1">
          <mxGeometry x="1700" y="13380" width="1450" height="30" as="geometry" />
        </mxCell>
        <mxCell id="cPIrNWwGML68DfH43bNu-3695" value="R, W: 145, H: 123, ORDER: 21, GC: {33, 35, 17, 14, 2, 38, 12, 25, 3, 23, 20, 39, 37, 1, 10, 15, 40, 53, 48, 4, 44} " style="text;html=1;strokeColor=none;fillColor=none;align=center;verticalAlign=middle;whiteSpace=wrap;rounded=0;fontSize=24;" vertex="1" parent="1">
          <mxGeometry x="1710" y="14160" width="1450" height="30" as="geometry" />
        </mxCell>
        <mxCell id="cPIrNWwGML68DfH43bNu-3717" value="R, W: 145, H: 80, ORDER: 21, GC: {80, 22, 19, 24, 3, 11, 5, 25, 6, 23, 17, 33, 15, 8, 9, 7, 1, 10, 18, 4, 14} " style="text;html=1;strokeColor=none;fillColor=none;align=center;verticalAlign=middle;whiteSpace=wrap;rounded=0;fontSize=24;" vertex="1" parent="1">
          <mxGeometry x="1750" y="15550" width="1450" height="30" as="geometry" />
        </mxCell>
        <mxCell id="cPIrNWwGML68DfH43bNu-3725" value="80" style="rounded=0;whiteSpace=wrap;html=1;fontSize=24;" vertex="1" parent="1">
          <mxGeometry x="1710" y="15600" width="800" height="800" as="geometry" />
        </mxCell>
        <mxCell id="cPIrNWwGML68DfH43bNu-3729" value="18" style="rounded=0;whiteSpace=wrap;html=1;fontSize=24;fillColor=#ffe6cc;strokeColor=#d79b00;" vertex="1" parent="1">
          <mxGeometry x="2840" y="15600" width="180" height="180" as="geometry" />
        </mxCell>
        <mxCell id="cPIrNWwGML68DfH43bNu-3730" value="14" style="rounded=0;whiteSpace=wrap;html=1;fontSize=24;fillColor=#ffe6cc;strokeColor=#d79b00;" vertex="1" parent="1">
          <mxGeometry x="3020" y="15600" width="140" height="140" as="geometry" />
        </mxCell>
        <mxCell id="cPIrNWwGML68DfH43bNu-3731" value="33" style="rounded=0;whiteSpace=wrap;html=1;fontSize=24;fillColor=#f8cecc;strokeColor=#b85450;" vertex="1" parent="1">
          <mxGeometry x="2510" y="15600" width="330" height="330" as="geometry" />
        </mxCell>
        <mxCell id="cPIrNWwGML68DfH43bNu-3732" value="4" style="rounded=0;whiteSpace=wrap;html=1;fontSize=24;fillColor=#ffe6cc;strokeColor=#d79b00;" vertex="1" parent="1">
          <mxGeometry x="3020" y="15740" width="40" height="40" as="geometry" />
        </mxCell>
        <mxCell id="cPIrNWwGML68DfH43bNu-3733" value="10" style="rounded=0;whiteSpace=wrap;html=1;fontSize=24;fillColor=#ffe6cc;strokeColor=#d79b00;" vertex="1" parent="1">
          <mxGeometry x="3060" y="15740" width="100" height="100" as="geometry" />
        </mxCell>
        <mxCell id="cPIrNWwGML68DfH43bNu-3734" value="15" style="rounded=0;whiteSpace=wrap;html=1;fontSize=24;fillColor=#ffe6cc;strokeColor=#d79b00;" vertex="1" parent="1">
          <mxGeometry x="2840" y="15780" width="150" height="150" as="geometry" />
        </mxCell>
        <mxCell id="cPIrNWwGML68DfH43bNu-3735" value="7" style="rounded=0;whiteSpace=wrap;html=1;fontSize=24;fillColor=#ffe6cc;strokeColor=#d79b00;" vertex="1" parent="1">
          <mxGeometry x="2990" y="15780" width="70" height="70" as="geometry" />
        </mxCell>
        <mxCell id="cPIrNWwGML68DfH43bNu-3736" value="1" style="rounded=0;whiteSpace=wrap;html=1;fontSize=24;fillColor=#ffe6cc;strokeColor=#d79b00;" vertex="1" parent="1">
          <mxGeometry x="3060" y="15840" width="10" height="10" as="geometry" />
        </mxCell>
        <mxCell id="cPIrNWwGML68DfH43bNu-3737" value="9" style="rounded=0;whiteSpace=wrap;html=1;fontSize=24;fillColor=#ffe6cc;strokeColor=#d79b00;" vertex="1" parent="1">
          <mxGeometry x="3070" y="15840" width="90" height="90" as="geometry" />
        </mxCell>
        <mxCell id="cPIrNWwGML68DfH43bNu-3738" value="8" style="rounded=0;whiteSpace=wrap;html=1;fontSize=24;fillColor=#ffe6cc;strokeColor=#d79b00;" vertex="1" parent="1">
          <mxGeometry x="2990" y="15850" width="80" height="80" as="geometry" />
        </mxCell>
        <mxCell id="cPIrNWwGML68DfH43bNu-3739" value="R, W: 145, H: 140, ORDER: 22, GC: {69, 28, 48, 17, 11, 6, 5, 1, 4, 24, 21, 31, 71, 33, 10, 16, 25, 7, 9, 38, 2, 36} " style="text;html=1;strokeColor=none;fillColor=none;align=center;verticalAlign=middle;whiteSpace=wrap;rounded=0;fontSize=24;" vertex="1" parent="1">
          <mxGeometry x="1740" y="16480" width="1450" height="30" as="geometry" />
        </mxCell>
        <mxCell id="cPIrNWwGML68DfH43bNu-3762" value="R, W: 145, H: 139, ORDER: 23, GC: {40, 31, 28, 46, 3, 7, 18, 9, 21, 4, 11, 37, 12, 6, 20, 25, 14, 49, 34, 5, 44, 62, 39} " style="text;html=1;strokeColor=none;fillColor=none;align=center;verticalAlign=middle;whiteSpace=wrap;rounded=0;fontSize=24;" vertex="1" parent="1">
          <mxGeometry x="1750" y="18010" width="1450" height="30" as="geometry" />
        </mxCell>
        <mxCell id="cPIrNWwGML68DfH43bNu-3786" value="S, W: 145, H: 145, ORDER: 23, GC: {31, 32, 30, 1, 36, 29, 4, 22, 24, 20, 2, 26, 25, 9, 6, 3, 15, 8, 12, 34, 27, 84, 61} " style="text;html=1;strokeColor=none;fillColor=none;align=center;verticalAlign=middle;whiteSpace=wrap;rounded=0;fontSize=24;" vertex="1" parent="1">
          <mxGeometry x="1740" y="19560" width="1450" height="30" as="geometry" />
        </mxCell>
        <mxCell id="cPIrNWwGML68DfH43bNu-3810" value="R, W: 145, H: 139, ORDER: 24, GC: {42, 25, 33, 17, 8, 45, 29, 12, 26, 31, 39, 20, 19, 30, 21, 5, 13, 23, 3, 10, 58, 47, 7, 40} " style="text;html=1;strokeColor=none;fillColor=none;align=center;verticalAlign=middle;whiteSpace=wrap;rounded=0;fontSize=24;" vertex="1" parent="1">
          <mxGeometry x="1760" y="21180" width="1450" height="30" as="geometry" />
        </mxCell>
        <mxCell id="cPIrNWwGML68DfH43bNu-3835" value="R, W: 145, H: 140, ORDER: 25, GC: {65, 23, 22, 35, 1, 21, 24, 8, 27, 10, 19, 18, 6, 7, 9, 5, 2, 16, 41, 75, 13, 29, 4, 37, 33} " style="text;html=1;strokeColor=none;fillColor=none;align=center;verticalAlign=middle;whiteSpace=wrap;rounded=0;fontSize=24;" vertex="1" parent="1">
          <mxGeometry x="1740" y="22720" width="1450" height="30" as="geometry" />
        </mxCell>
        <mxCell id="cPIrNWwGML68DfH43bNu-3861" value="R, W: 145, H: 144, ORDER: 25, GC: {27, 40, 17, 10, 7, 3, 34, 44, 16, 18, 9, 19, 5, 23, 11, 14, 1, 13, 2, 12, 8, 36, 28, 81, 64} " style="text;html=1;strokeColor=none;fillColor=none;align=center;verticalAlign=middle;whiteSpace=wrap;rounded=0;fontSize=24;" vertex="1" parent="1">
          <mxGeometry x="1750" y="24330" width="1450" height="30" as="geometry" />
        </mxCell>
        <mxCell id="cPIrNWwGML68DfH43bNu-3887" value="" style="group;flipV=1;" vertex="1" connectable="0" parent="1">
          <mxGeometry x="1550" y="50" width="1450" height="1440" as="geometry" />
        </mxCell>
        <mxCell id="761dnnyQ54j-Cl0NHfQN-2924" value="68" style="rounded=0;whiteSpace=wrap;html=1;fontSize=24;" parent="cPIrNWwGML68DfH43bNu-3887" vertex="1">
          <mxGeometry y="760" width="680" height="680" as="geometry" />
        </mxCell>
        <mxCell id="761dnnyQ54j-Cl0NHfQN-2925" value="39" style="rounded=0;whiteSpace=wrap;html=1;fontSize=24;" parent="cPIrNWwGML68DfH43bNu-3887" vertex="1">
          <mxGeometry x="680" y="1050" width="390" height="390" as="geometry" />
        </mxCell>
        <mxCell id="761dnnyQ54j-Cl0NHfQN-2926" value="38" style="rounded=0;whiteSpace=wrap;html=1;fontSize=24;" parent="cPIrNWwGML68DfH43bNu-3887" vertex="1">
          <mxGeometry x="1070" y="1060" width="380" height="380" as="geometry" />
        </mxCell>
        <mxCell id="761dnnyQ54j-Cl0NHfQN-2927" value="1" style="rounded=0;whiteSpace=wrap;html=1;fontSize=24;" parent="cPIrNWwGML68DfH43bNu-3887" vertex="1">
          <mxGeometry x="1070" y="1050" width="10" height="10" as="geometry" />
        </mxCell>
        <mxCell id="761dnnyQ54j-Cl0NHfQN-2928" value="37" style="rounded=0;whiteSpace=wrap;html=1;fontSize=24;" parent="cPIrNWwGML68DfH43bNu-3887" vertex="1">
          <mxGeometry x="1080" y="690" width="370" height="370" as="geometry" />
        </mxCell>
        <mxCell id="761dnnyQ54j-Cl0NHfQN-2929" value="21" style="rounded=0;whiteSpace=wrap;html=1;fontSize=24;" parent="cPIrNWwGML68DfH43bNu-3887" vertex="1">
          <mxGeometry x="680" y="840" width="210" height="210" as="geometry" />
        </mxCell>
        <mxCell id="761dnnyQ54j-Cl0NHfQN-2930" value="19" style="rounded=0;whiteSpace=wrap;html=1;fontSize=24;" parent="cPIrNWwGML68DfH43bNu-3887" vertex="1">
          <mxGeometry x="890" y="860" width="190" height="190" as="geometry" />
        </mxCell>
        <mxCell id="761dnnyQ54j-Cl0NHfQN-2931" value="2" style="rounded=0;whiteSpace=wrap;html=1;fontSize=24;" parent="cPIrNWwGML68DfH43bNu-3887" vertex="1">
          <mxGeometry x="890" y="840" width="20" height="20" as="geometry" />
        </mxCell>
        <mxCell id="761dnnyQ54j-Cl0NHfQN-2932" value="17" style="rounded=0;whiteSpace=wrap;html=1;fontSize=24;" parent="cPIrNWwGML68DfH43bNu-3887" vertex="1">
          <mxGeometry x="910" y="690" width="170" height="170" as="geometry" />
        </mxCell>
        <mxCell id="761dnnyQ54j-Cl0NHfQN-2933" value="8" style="rounded=0;whiteSpace=wrap;html=1;fontSize=24;" parent="cPIrNWwGML68DfH43bNu-3887" vertex="1">
          <mxGeometry x="680" y="760" width="80" height="80" as="geometry" />
        </mxCell>
        <mxCell id="761dnnyQ54j-Cl0NHfQN-2934" value="15" style="rounded=0;whiteSpace=wrap;html=1;fontSize=24;" parent="cPIrNWwGML68DfH43bNu-3887" vertex="1">
          <mxGeometry x="760" y="690" width="150" height="150" as="geometry" />
        </mxCell>
        <mxCell id="761dnnyQ54j-Cl0NHfQN-2935" value="76" style="rounded=0;whiteSpace=wrap;html=1;fontSize=24;" parent="cPIrNWwGML68DfH43bNu-3887" vertex="1">
          <mxGeometry width="760" height="760" as="geometry" />
        </mxCell>
        <mxCell id="761dnnyQ54j-Cl0NHfQN-2936" value="69" style="rounded=0;whiteSpace=wrap;html=1;fontSize=24;" parent="cPIrNWwGML68DfH43bNu-3887" vertex="1">
          <mxGeometry x="760" width="690" height="690" as="geometry" />
        </mxCell>
        <mxCell id="cPIrNWwGML68DfH43bNu-3888" value="" style="group;flipV=1;" vertex="1" connectable="0" parent="1">
          <mxGeometry x="1580" y="1625" width="1450" height="1290" as="geometry" />
        </mxCell>
        <mxCell id="cPIrNWwGML68DfH43bNu-3519" value="60" style="rounded=0;whiteSpace=wrap;html=1;fontSize=24;" vertex="1" parent="cPIrNWwGML68DfH43bNu-3888">
          <mxGeometry y="690" width="600" height="600" as="geometry" />
        </mxCell>
        <mxCell id="cPIrNWwGML68DfH43bNu-3520" value="36" style="rounded=0;whiteSpace=wrap;html=1;fontSize=24;" vertex="1" parent="cPIrNWwGML68DfH43bNu-3888">
          <mxGeometry x="600" y="930" width="360" height="360" as="geometry" />
        </mxCell>
        <mxCell id="cPIrNWwGML68DfH43bNu-3521" value="49" style="rounded=0;whiteSpace=wrap;html=1;fontSize=24;" vertex="1" parent="cPIrNWwGML68DfH43bNu-3888">
          <mxGeometry x="960" y="800" width="490" height="490" as="geometry" />
        </mxCell>
        <mxCell id="cPIrNWwGML68DfH43bNu-3522" value="15" style="rounded=0;whiteSpace=wrap;html=1;fontSize=24;" vertex="1" parent="cPIrNWwGML68DfH43bNu-3888">
          <mxGeometry x="600" y="780" width="150" height="150" as="geometry" />
        </mxCell>
        <mxCell id="cPIrNWwGML68DfH43bNu-3523" value="21" style="rounded=0;whiteSpace=wrap;html=1;fontSize=24;" vertex="1" parent="cPIrNWwGML68DfH43bNu-3888">
          <mxGeometry x="750" y="720" width="210" height="210" as="geometry" />
        </mxCell>
        <mxCell id="cPIrNWwGML68DfH43bNu-3524" value="9" style="rounded=0;whiteSpace=wrap;html=1;fontSize=24;" vertex="1" parent="cPIrNWwGML68DfH43bNu-3888">
          <mxGeometry x="600" y="690" width="90" height="90" as="geometry" />
        </mxCell>
        <mxCell id="cPIrNWwGML68DfH43bNu-3525" value="6" style="rounded=0;whiteSpace=wrap;html=1;fontSize=24;" vertex="1" parent="cPIrNWwGML68DfH43bNu-3888">
          <mxGeometry x="690" y="720" width="60" height="60" as="geometry" />
        </mxCell>
        <mxCell id="cPIrNWwGML68DfH43bNu-3526" value="8" style="rounded=0;whiteSpace=wrap;html=1;fontSize=24;" vertex="1" parent="cPIrNWwGML68DfH43bNu-3888">
          <mxGeometry x="960" y="720" width="80" height="80" as="geometry" />
        </mxCell>
        <mxCell id="cPIrNWwGML68DfH43bNu-3527" value="41" style="rounded=0;whiteSpace=wrap;html=1;fontSize=24;" vertex="1" parent="cPIrNWwGML68DfH43bNu-3888">
          <mxGeometry x="1040" y="390" width="410" height="410" as="geometry" />
        </mxCell>
        <mxCell id="cPIrNWwGML68DfH43bNu-3528" value="35" style="rounded=0;whiteSpace=wrap;html=1;fontSize=24;" vertex="1" parent="cPIrNWwGML68DfH43bNu-3888">
          <mxGeometry x="690" y="370" width="350" height="350" as="geometry" />
        </mxCell>
        <mxCell id="cPIrNWwGML68DfH43bNu-3529" value="2" style="rounded=0;whiteSpace=wrap;html=1;fontSize=24;" vertex="1" parent="cPIrNWwGML68DfH43bNu-3888">
          <mxGeometry x="1040" y="370" width="20" height="20" as="geometry" />
        </mxCell>
        <mxCell id="cPIrNWwGML68DfH43bNu-3530" value="39" style="rounded=0;whiteSpace=wrap;html=1;fontSize=24;" vertex="1" parent="cPIrNWwGML68DfH43bNu-3888">
          <mxGeometry x="1060" width="390" height="390" as="geometry" />
        </mxCell>
        <mxCell id="cPIrNWwGML68DfH43bNu-3531" value="69" style="rounded=0;whiteSpace=wrap;html=1;fontSize=24;" vertex="1" parent="cPIrNWwGML68DfH43bNu-3888">
          <mxGeometry width="690" height="690" as="geometry" />
        </mxCell>
        <mxCell id="cPIrNWwGML68DfH43bNu-3532" value="37" style="rounded=0;whiteSpace=wrap;html=1;fontSize=24;" vertex="1" parent="cPIrNWwGML68DfH43bNu-3888">
          <mxGeometry x="690" width="370" height="370" as="geometry" />
        </mxCell>
        <mxCell id="cPIrNWwGML68DfH43bNu-3889" value="" style="group;flipV=1;" vertex="1" connectable="0" parent="1">
          <mxGeometry x="1590" y="3050" width="1450" height="1110" as="geometry" />
        </mxCell>
        <mxCell id="cPIrNWwGML68DfH43bNu-3534" value="49" style="rounded=0;whiteSpace=wrap;html=1;fontSize=24;" vertex="1" parent="cPIrNWwGML68DfH43bNu-3889">
          <mxGeometry y="620" width="490" height="490" as="geometry" />
        </mxCell>
        <mxCell id="cPIrNWwGML68DfH43bNu-3535" value="36" style="rounded=0;whiteSpace=wrap;html=1;fontSize=24;" vertex="1" parent="cPIrNWwGML68DfH43bNu-3889">
          <mxGeometry x="490" y="750" width="360" height="360" as="geometry" />
        </mxCell>
        <mxCell id="cPIrNWwGML68DfH43bNu-3536" value="60" style="rounded=0;whiteSpace=wrap;html=1;fontSize=24;" vertex="1" parent="cPIrNWwGML68DfH43bNu-3889">
          <mxGeometry x="850" y="510" width="600" height="600" as="geometry" />
        </mxCell>
        <mxCell id="cPIrNWwGML68DfH43bNu-3537" value="13" style="rounded=0;whiteSpace=wrap;html=1;fontSize=24;" vertex="1" parent="cPIrNWwGML68DfH43bNu-3889">
          <mxGeometry x="490" y="620" width="130" height="130" as="geometry" />
        </mxCell>
        <mxCell id="cPIrNWwGML68DfH43bNu-3538" value="23" style="rounded=0;whiteSpace=wrap;html=1;fontSize=24;" vertex="1" parent="cPIrNWwGML68DfH43bNu-3889">
          <mxGeometry x="620" y="520" width="230" height="230" as="geometry" />
        </mxCell>
        <mxCell id="cPIrNWwGML68DfH43bNu-3539" value="62" style="rounded=0;whiteSpace=wrap;html=1;fontSize=24;" vertex="1" parent="cPIrNWwGML68DfH43bNu-3889">
          <mxGeometry width="620" height="620" as="geometry" />
        </mxCell>
        <mxCell id="cPIrNWwGML68DfH43bNu-3540" value="20" style="rounded=0;whiteSpace=wrap;html=1;fontSize=24;" vertex="1" parent="cPIrNWwGML68DfH43bNu-3889">
          <mxGeometry x="620" y="320" width="200" height="200" as="geometry" />
        </mxCell>
        <mxCell id="cPIrNWwGML68DfH43bNu-3541" value="3" style="rounded=0;whiteSpace=wrap;html=1;fontSize=24;" vertex="1" parent="cPIrNWwGML68DfH43bNu-3889">
          <mxGeometry x="820" y="490" width="30" height="30" as="geometry" />
        </mxCell>
        <mxCell id="cPIrNWwGML68DfH43bNu-3542" value="2" style="rounded=0;whiteSpace=wrap;html=1;fontSize=24;" vertex="1" parent="cPIrNWwGML68DfH43bNu-3889">
          <mxGeometry x="850" y="490" width="20" height="20" as="geometry" />
        </mxCell>
        <mxCell id="cPIrNWwGML68DfH43bNu-3543" value="7" style="rounded=0;whiteSpace=wrap;html=1;fontSize=24;" vertex="1" parent="cPIrNWwGML68DfH43bNu-3889">
          <mxGeometry x="870" y="440" width="70" height="70" as="geometry" />
        </mxCell>
        <mxCell id="cPIrNWwGML68DfH43bNu-3544" value="5" style="rounded=0;whiteSpace=wrap;html=1;fontSize=24;" vertex="1" parent="cPIrNWwGML68DfH43bNu-3889">
          <mxGeometry x="820" y="440" width="50" height="50" as="geometry" />
        </mxCell>
        <mxCell id="cPIrNWwGML68DfH43bNu-3545" value="51" style="rounded=0;whiteSpace=wrap;html=1;fontSize=24;" vertex="1" parent="cPIrNWwGML68DfH43bNu-3889">
          <mxGeometry x="940" width="510" height="510" as="geometry" />
        </mxCell>
        <mxCell id="cPIrNWwGML68DfH43bNu-3546" value="12" style="rounded=0;whiteSpace=wrap;html=1;fontSize=24;" vertex="1" parent="cPIrNWwGML68DfH43bNu-3889">
          <mxGeometry x="820" y="320" width="120" height="120" as="geometry" />
        </mxCell>
        <mxCell id="cPIrNWwGML68DfH43bNu-3547" value="32" style="rounded=0;whiteSpace=wrap;html=1;fontSize=24;" vertex="1" parent="cPIrNWwGML68DfH43bNu-3889">
          <mxGeometry x="620" width="320" height="320" as="geometry" />
        </mxCell>
        <mxCell id="cPIrNWwGML68DfH43bNu-3890" value="" style="group;flipV=1;" vertex="1" connectable="0" parent="1">
          <mxGeometry x="1620" y="4300" width="1450" height="1110" as="geometry" />
        </mxCell>
        <mxCell id="cPIrNWwGML68DfH43bNu-3549" value="51" style="rounded=0;whiteSpace=wrap;html=1;fontSize=24;" vertex="1" parent="cPIrNWwGML68DfH43bNu-3890">
          <mxGeometry y="600" width="510" height="510" as="geometry" />
        </mxCell>
        <mxCell id="cPIrNWwGML68DfH43bNu-3550" value="42" style="rounded=0;whiteSpace=wrap;html=1;fontSize=24;" vertex="1" parent="cPIrNWwGML68DfH43bNu-3890">
          <mxGeometry x="510" y="690" width="420" height="420" as="geometry" />
        </mxCell>
        <mxCell id="cPIrNWwGML68DfH43bNu-3551" value="52" style="rounded=0;whiteSpace=wrap;html=1;fontSize=24;" vertex="1" parent="cPIrNWwGML68DfH43bNu-3890">
          <mxGeometry x="930" y="590" width="520" height="520" as="geometry" />
        </mxCell>
        <mxCell id="cPIrNWwGML68DfH43bNu-3552" value="9" style="rounded=0;whiteSpace=wrap;html=1;fontSize=24;" vertex="1" parent="cPIrNWwGML68DfH43bNu-3890">
          <mxGeometry x="510" y="600" width="90" height="90" as="geometry" />
        </mxCell>
        <mxCell id="cPIrNWwGML68DfH43bNu-3553" value="33" style="rounded=0;whiteSpace=wrap;html=1;fontSize=24;" vertex="1" parent="cPIrNWwGML68DfH43bNu-3890">
          <mxGeometry x="600" y="360" width="330" height="330" as="geometry" />
        </mxCell>
        <mxCell id="cPIrNWwGML68DfH43bNu-3554" value="20" style="rounded=0;whiteSpace=wrap;html=1;fontSize=24;" vertex="1" parent="cPIrNWwGML68DfH43bNu-3890">
          <mxGeometry x="930" y="390" width="200" height="200" as="geometry" />
        </mxCell>
        <mxCell id="cPIrNWwGML68DfH43bNu-3555" value="32" style="rounded=0;whiteSpace=wrap;html=1;fontSize=24;" vertex="1" parent="cPIrNWwGML68DfH43bNu-3890">
          <mxGeometry x="1130" y="270" width="320" height="320" as="geometry" />
        </mxCell>
        <mxCell id="cPIrNWwGML68DfH43bNu-3556" value="3" style="rounded=0;whiteSpace=wrap;html=1;fontSize=24;" vertex="1" parent="cPIrNWwGML68DfH43bNu-3890">
          <mxGeometry x="930" y="360" width="30" height="30" as="geometry" />
        </mxCell>
        <mxCell id="cPIrNWwGML68DfH43bNu-3557" value="17" style="rounded=0;whiteSpace=wrap;html=1;fontSize=24;" vertex="1" parent="cPIrNWwGML68DfH43bNu-3890">
          <mxGeometry x="960" y="220" width="170" height="170" as="geometry" />
        </mxCell>
        <mxCell id="cPIrNWwGML68DfH43bNu-3558" value="5" style="rounded=0;whiteSpace=wrap;html=1;fontSize=24;" vertex="1" parent="cPIrNWwGML68DfH43bNu-3890">
          <mxGeometry x="1130" y="220" width="50" height="50" as="geometry" />
        </mxCell>
        <mxCell id="cPIrNWwGML68DfH43bNu-3559" value="27" style="rounded=0;whiteSpace=wrap;html=1;fontSize=24;" vertex="1" parent="cPIrNWwGML68DfH43bNu-3890">
          <mxGeometry x="1180" width="270" height="270" as="geometry" />
        </mxCell>
        <mxCell id="cPIrNWwGML68DfH43bNu-3560" value="60" style="rounded=0;whiteSpace=wrap;html=1;fontSize=24;" vertex="1" parent="cPIrNWwGML68DfH43bNu-3890">
          <mxGeometry width="600" height="600" as="geometry" />
        </mxCell>
        <mxCell id="cPIrNWwGML68DfH43bNu-3561" value="36" style="rounded=0;whiteSpace=wrap;html=1;fontSize=24;" vertex="1" parent="cPIrNWwGML68DfH43bNu-3890">
          <mxGeometry x="600" width="360" height="360" as="geometry" />
        </mxCell>
        <mxCell id="cPIrNWwGML68DfH43bNu-3562" value="22" style="rounded=0;whiteSpace=wrap;html=1;fontSize=24;" vertex="1" parent="cPIrNWwGML68DfH43bNu-3890">
          <mxGeometry x="960" width="220" height="220" as="geometry" />
        </mxCell>
        <mxCell id="cPIrNWwGML68DfH43bNu-3891" value="" style="group;flipV=1;" vertex="1" connectable="0" parent="1">
          <mxGeometry x="1640" y="5570" width="1450" height="1090" as="geometry" />
        </mxCell>
        <mxCell id="cPIrNWwGML68DfH43bNu-3564" value="50" style="rounded=0;whiteSpace=wrap;html=1;fontSize=24;" vertex="1" parent="cPIrNWwGML68DfH43bNu-3891">
          <mxGeometry y="590" width="500" height="500" as="geometry" />
        </mxCell>
        <mxCell id="cPIrNWwGML68DfH43bNu-3565" value="41" style="rounded=0;whiteSpace=wrap;html=1;fontSize=24;" vertex="1" parent="cPIrNWwGML68DfH43bNu-3891">
          <mxGeometry x="500" y="680" width="410" height="410" as="geometry" />
        </mxCell>
        <mxCell id="cPIrNWwGML68DfH43bNu-3566" value="54" style="rounded=0;whiteSpace=wrap;html=1;fontSize=24;" vertex="1" parent="cPIrNWwGML68DfH43bNu-3891">
          <mxGeometry x="910" y="550" width="540" height="540" as="geometry" />
        </mxCell>
        <mxCell id="cPIrNWwGML68DfH43bNu-3567" value="9" style="rounded=0;whiteSpace=wrap;html=1;fontSize=24;" vertex="1" parent="cPIrNWwGML68DfH43bNu-3891">
          <mxGeometry x="500" y="590" width="90" height="90" as="geometry" />
        </mxCell>
        <mxCell id="cPIrNWwGML68DfH43bNu-3568" value="20" style="rounded=0;whiteSpace=wrap;html=1;fontSize=24;" vertex="1" parent="cPIrNWwGML68DfH43bNu-3891">
          <mxGeometry x="590" y="480" width="200" height="200" as="geometry" />
        </mxCell>
        <mxCell id="cPIrNWwGML68DfH43bNu-3569" value="12" style="rounded=0;whiteSpace=wrap;html=1;fontSize=24;" vertex="1" parent="cPIrNWwGML68DfH43bNu-3891">
          <mxGeometry x="790" y="560" width="120" height="120" as="geometry" />
        </mxCell>
        <mxCell id="cPIrNWwGML68DfH43bNu-3570" value="11" style="rounded=0;whiteSpace=wrap;html=1;fontSize=24;" vertex="1" parent="cPIrNWwGML68DfH43bNu-3891">
          <mxGeometry x="790" y="450" width="110" height="110" as="geometry" />
        </mxCell>
        <mxCell id="cPIrNWwGML68DfH43bNu-3571" value="1" style="rounded=0;whiteSpace=wrap;html=1;fontSize=24;" vertex="1" parent="cPIrNWwGML68DfH43bNu-3891">
          <mxGeometry x="900" y="550" width="10" height="10" as="geometry" />
        </mxCell>
        <mxCell id="cPIrNWwGML68DfH43bNu-3572" value="55" style="rounded=0;whiteSpace=wrap;html=1;fontSize=24;" vertex="1" parent="cPIrNWwGML68DfH43bNu-3891">
          <mxGeometry x="900" width="550" height="550" as="geometry" />
        </mxCell>
        <mxCell id="cPIrNWwGML68DfH43bNu-3573" value="59" style="rounded=0;whiteSpace=wrap;html=1;fontSize=24;" vertex="1" parent="cPIrNWwGML68DfH43bNu-3891">
          <mxGeometry width="590" height="590" as="geometry" />
        </mxCell>
        <mxCell id="cPIrNWwGML68DfH43bNu-3574" value="17" style="rounded=0;whiteSpace=wrap;html=1;fontSize=24;" vertex="1" parent="cPIrNWwGML68DfH43bNu-3891">
          <mxGeometry x="590" y="310" width="170" height="170" as="geometry" />
        </mxCell>
        <mxCell id="cPIrNWwGML68DfH43bNu-3575" value="3" style="rounded=0;whiteSpace=wrap;html=1;fontSize=24;" vertex="1" parent="cPIrNWwGML68DfH43bNu-3891">
          <mxGeometry x="760" y="450" width="30" height="30" as="geometry" />
        </mxCell>
        <mxCell id="cPIrNWwGML68DfH43bNu-3576" value="14" style="rounded=0;whiteSpace=wrap;html=1;fontSize=24;" vertex="1" parent="cPIrNWwGML68DfH43bNu-3891">
          <mxGeometry x="760" y="310" width="140" height="140" as="geometry" />
        </mxCell>
        <mxCell id="cPIrNWwGML68DfH43bNu-3577" value="31" style="rounded=0;whiteSpace=wrap;html=1;fontSize=24;" vertex="1" parent="cPIrNWwGML68DfH43bNu-3891">
          <mxGeometry x="590" width="310" height="310" as="geometry" />
        </mxCell>
        <mxCell id="cPIrNWwGML68DfH43bNu-3892" value="" style="group;flipV=1;" vertex="1" connectable="0" parent="1">
          <mxGeometry x="1630" y="6810" width="1450" height="960" as="geometry" />
        </mxCell>
        <mxCell id="cPIrNWwGML68DfH43bNu-3579" value="43" style="rounded=0;whiteSpace=wrap;html=1;fontSize=24;" vertex="1" parent="cPIrNWwGML68DfH43bNu-3892">
          <mxGeometry y="530" width="430" height="430" as="geometry" />
        </mxCell>
        <mxCell id="cPIrNWwGML68DfH43bNu-3580" value="33" style="rounded=0;whiteSpace=wrap;html=1;fontSize=24;" vertex="1" parent="cPIrNWwGML68DfH43bNu-3892">
          <mxGeometry x="430" y="630" width="330" height="330" as="geometry" />
        </mxCell>
        <mxCell id="cPIrNWwGML68DfH43bNu-3581" value="25" style="rounded=0;whiteSpace=wrap;html=1;fontSize=24;" vertex="1" parent="cPIrNWwGML68DfH43bNu-3892">
          <mxGeometry x="760" y="710" width="250" height="250" as="geometry" />
        </mxCell>
        <mxCell id="cPIrNWwGML68DfH43bNu-3582" value="44" style="rounded=0;whiteSpace=wrap;html=1;fontSize=24;" vertex="1" parent="cPIrNWwGML68DfH43bNu-3892">
          <mxGeometry x="1010" y="520" width="440" height="440" as="geometry" />
        </mxCell>
        <mxCell id="cPIrNWwGML68DfH43bNu-3583" value="14" style="rounded=0;whiteSpace=wrap;html=1;fontSize=24;" vertex="1" parent="cPIrNWwGML68DfH43bNu-3892">
          <mxGeometry x="760" y="570" width="140" height="140" as="geometry" />
        </mxCell>
        <mxCell id="cPIrNWwGML68DfH43bNu-3584" value="11" style="rounded=0;whiteSpace=wrap;html=1;fontSize=24;" vertex="1" parent="cPIrNWwGML68DfH43bNu-3892">
          <mxGeometry x="900" y="600" width="110" height="110" as="geometry" />
        </mxCell>
        <mxCell id="cPIrNWwGML68DfH43bNu-3585" value="3" style="rounded=0;whiteSpace=wrap;html=1;fontSize=24;" vertex="1" parent="cPIrNWwGML68DfH43bNu-3892">
          <mxGeometry x="900" y="570" width="30" height="30" as="geometry" />
        </mxCell>
        <mxCell id="cPIrNWwGML68DfH43bNu-3586" value="8" style="rounded=0;whiteSpace=wrap;html=1;fontSize=24;" vertex="1" parent="cPIrNWwGML68DfH43bNu-3892">
          <mxGeometry x="930" y="520" width="80" height="80" as="geometry" />
        </mxCell>
        <mxCell id="cPIrNWwGML68DfH43bNu-3587" value="10" style="rounded=0;whiteSpace=wrap;html=1;fontSize=24;" vertex="1" parent="cPIrNWwGML68DfH43bNu-3892">
          <mxGeometry x="430" y="530" width="100" height="100" as="geometry" />
        </mxCell>
        <mxCell id="cPIrNWwGML68DfH43bNu-3588" value="23" style="rounded=0;whiteSpace=wrap;html=1;fontSize=24;" vertex="1" parent="cPIrNWwGML68DfH43bNu-3892">
          <mxGeometry x="530" y="400" width="230" height="230" as="geometry" />
        </mxCell>
        <mxCell id="cPIrNWwGML68DfH43bNu-3589" value="17" style="rounded=0;whiteSpace=wrap;html=1;fontSize=24;" vertex="1" parent="cPIrNWwGML68DfH43bNu-3892">
          <mxGeometry x="760" y="400" width="170" height="170" as="geometry" />
        </mxCell>
        <mxCell id="cPIrNWwGML68DfH43bNu-3590" value="52" style="rounded=0;whiteSpace=wrap;html=1;fontSize=24;" vertex="1" parent="cPIrNWwGML68DfH43bNu-3892">
          <mxGeometry x="930" width="520" height="520" as="geometry" />
        </mxCell>
        <mxCell id="cPIrNWwGML68DfH43bNu-3591" value="53" style="rounded=0;whiteSpace=wrap;html=1;fontSize=24;" vertex="1" parent="cPIrNWwGML68DfH43bNu-3892">
          <mxGeometry width="530" height="530" as="geometry" />
        </mxCell>
        <mxCell id="cPIrNWwGML68DfH43bNu-3592" value="40" style="rounded=0;whiteSpace=wrap;html=1;fontSize=24;" vertex="1" parent="cPIrNWwGML68DfH43bNu-3892">
          <mxGeometry x="530" width="400" height="400" as="geometry" />
        </mxCell>
        <mxCell id="cPIrNWwGML68DfH43bNu-3893" value="" style="group;flipV=1;" vertex="1" connectable="0" parent="1">
          <mxGeometry x="1640" y="7920" width="1450" height="1380" as="geometry" />
        </mxCell>
        <mxCell id="cPIrNWwGML68DfH43bNu-3594" value="60" style="rounded=0;whiteSpace=wrap;html=1;fontSize=24;" vertex="1" parent="cPIrNWwGML68DfH43bNu-3893">
          <mxGeometry y="780" width="600" height="600" as="geometry" />
        </mxCell>
        <mxCell id="cPIrNWwGML68DfH43bNu-3595" value="24" style="rounded=0;whiteSpace=wrap;html=1;fontSize=24;" vertex="1" parent="cPIrNWwGML68DfH43bNu-3893">
          <mxGeometry x="600" y="1140" width="240" height="240" as="geometry" />
        </mxCell>
        <mxCell id="cPIrNWwGML68DfH43bNu-3596" value="28" style="rounded=0;whiteSpace=wrap;html=1;fontSize=24;" vertex="1" parent="cPIrNWwGML68DfH43bNu-3893">
          <mxGeometry x="840" y="1100" width="280" height="280" as="geometry" />
        </mxCell>
        <mxCell id="cPIrNWwGML68DfH43bNu-3597" value="14" style="rounded=0;whiteSpace=wrap;html=1;fontSize=24;" vertex="1" parent="cPIrNWwGML68DfH43bNu-3893">
          <mxGeometry x="600" y="1000" width="140" height="140" as="geometry" />
        </mxCell>
        <mxCell id="cPIrNWwGML68DfH43bNu-3598" value="6" style="rounded=0;whiteSpace=wrap;html=1;fontSize=24;" vertex="1" parent="cPIrNWwGML68DfH43bNu-3893">
          <mxGeometry x="740" y="1080" width="60" height="60" as="geometry" />
        </mxCell>
        <mxCell id="cPIrNWwGML68DfH43bNu-3599" value="4" style="rounded=0;whiteSpace=wrap;html=1;fontSize=24;" vertex="1" parent="cPIrNWwGML68DfH43bNu-3893">
          <mxGeometry x="800" y="1100" width="40" height="40" as="geometry" />
        </mxCell>
        <mxCell id="cPIrNWwGML68DfH43bNu-3600" value="33" style="rounded=0;whiteSpace=wrap;html=1;fontSize=24;" vertex="1" parent="cPIrNWwGML68DfH43bNu-3893">
          <mxGeometry x="1120" y="1050" width="330" height="330" as="geometry" />
        </mxCell>
        <mxCell id="cPIrNWwGML68DfH43bNu-3601" value="2" style="rounded=0;whiteSpace=wrap;html=1;fontSize=24;" vertex="1" parent="cPIrNWwGML68DfH43bNu-3893">
          <mxGeometry x="800" y="1080" width="20" height="20" as="geometry" />
        </mxCell>
        <mxCell id="cPIrNWwGML68DfH43bNu-3602" value="25" style="rounded=0;whiteSpace=wrap;html=1;fontSize=24;" vertex="1" parent="cPIrNWwGML68DfH43bNu-3893">
          <mxGeometry x="820" y="850" width="250" height="250" as="geometry" />
        </mxCell>
        <mxCell id="cPIrNWwGML68DfH43bNu-3603" value="5" style="rounded=0;whiteSpace=wrap;html=1;fontSize=24;" vertex="1" parent="cPIrNWwGML68DfH43bNu-3893">
          <mxGeometry x="1070" y="1050" width="50" height="50" as="geometry" />
        </mxCell>
        <mxCell id="cPIrNWwGML68DfH43bNu-3604" value="8" style="rounded=0;whiteSpace=wrap;html=1;fontSize=24;" vertex="1" parent="cPIrNWwGML68DfH43bNu-3893">
          <mxGeometry x="740" y="1000" width="80" height="80" as="geometry" />
        </mxCell>
        <mxCell id="cPIrNWwGML68DfH43bNu-3605" value="22" style="rounded=0;whiteSpace=wrap;html=1;fontSize=24;" vertex="1" parent="cPIrNWwGML68DfH43bNu-3893">
          <mxGeometry x="600" y="780" width="220" height="220" as="geometry" />
        </mxCell>
        <mxCell id="cPIrNWwGML68DfH43bNu-3606" value="38" style="rounded=0;whiteSpace=wrap;html=1;fontSize=24;" vertex="1" parent="cPIrNWwGML68DfH43bNu-3893">
          <mxGeometry x="1070" y="670" width="380" height="380" as="geometry" />
        </mxCell>
        <mxCell id="cPIrNWwGML68DfH43bNu-3607" value="7" style="rounded=0;whiteSpace=wrap;html=1;fontSize=24;" vertex="1" parent="cPIrNWwGML68DfH43bNu-3893">
          <mxGeometry x="820" y="780" width="70" height="70" as="geometry" />
        </mxCell>
        <mxCell id="cPIrNWwGML68DfH43bNu-3608" value="18" style="rounded=0;whiteSpace=wrap;html=1;fontSize=24;" vertex="1" parent="cPIrNWwGML68DfH43bNu-3893">
          <mxGeometry x="890" y="670" width="180" height="180" as="geometry" />
        </mxCell>
        <mxCell id="cPIrNWwGML68DfH43bNu-3609" value="78" style="rounded=0;whiteSpace=wrap;html=1;fontSize=24;" vertex="1" parent="cPIrNWwGML68DfH43bNu-3893">
          <mxGeometry width="780" height="780" as="geometry" />
        </mxCell>
        <mxCell id="cPIrNWwGML68DfH43bNu-3610" value="11" style="rounded=0;whiteSpace=wrap;html=1;fontSize=24;" vertex="1" parent="cPIrNWwGML68DfH43bNu-3893">
          <mxGeometry x="780" y="670" width="110" height="110" as="geometry" />
        </mxCell>
        <mxCell id="cPIrNWwGML68DfH43bNu-3611" value="67" style="rounded=0;whiteSpace=wrap;html=1;fontSize=24;" vertex="1" parent="cPIrNWwGML68DfH43bNu-3893">
          <mxGeometry x="780" width="670" height="670" as="geometry" />
        </mxCell>
        <mxCell id="cPIrNWwGML68DfH43bNu-3894" value="" style="group;flipV=1;" vertex="1" connectable="0" parent="1">
          <mxGeometry x="1680" y="9420" width="1450" height="880" as="geometry" />
        </mxCell>
        <mxCell id="cPIrNWwGML68DfH43bNu-3613" value="36" style="rounded=0;whiteSpace=wrap;html=1;fontSize=24;" vertex="1" parent="cPIrNWwGML68DfH43bNu-3894">
          <mxGeometry y="520" width="360" height="360" as="geometry" />
        </mxCell>
        <mxCell id="cPIrNWwGML68DfH43bNu-3614" value="11" style="rounded=0;whiteSpace=wrap;html=1;fontSize=24;" vertex="1" parent="cPIrNWwGML68DfH43bNu-3894">
          <mxGeometry x="360" y="770" width="110" height="110" as="geometry" />
        </mxCell>
        <mxCell id="cPIrNWwGML68DfH43bNu-3615" value="13" style="rounded=0;whiteSpace=wrap;html=1;fontSize=24;" vertex="1" parent="cPIrNWwGML68DfH43bNu-3894">
          <mxGeometry x="470" y="750" width="130" height="130" as="geometry" />
        </mxCell>
        <mxCell id="cPIrNWwGML68DfH43bNu-3616" value="9" style="rounded=0;whiteSpace=wrap;html=1;fontSize=24;" vertex="1" parent="cPIrNWwGML68DfH43bNu-3894">
          <mxGeometry x="360" y="680" width="90" height="90" as="geometry" />
        </mxCell>
        <mxCell id="cPIrNWwGML68DfH43bNu-3617" value="2" style="rounded=0;whiteSpace=wrap;html=1;fontSize=24;" vertex="1" parent="cPIrNWwGML68DfH43bNu-3894">
          <mxGeometry x="450" y="750" width="20" height="20" as="geometry" />
        </mxCell>
        <mxCell id="cPIrNWwGML68DfH43bNu-3618" value="21" style="rounded=0;whiteSpace=wrap;html=1;fontSize=24;" vertex="1" parent="cPIrNWwGML68DfH43bNu-3894">
          <mxGeometry x="600" y="670" width="210" height="210" as="geometry" />
        </mxCell>
        <mxCell id="cPIrNWwGML68DfH43bNu-3619" value="7" style="rounded=0;whiteSpace=wrap;html=1;fontSize=24;" vertex="1" parent="cPIrNWwGML68DfH43bNu-3894">
          <mxGeometry x="450" y="680" width="70" height="70" as="geometry" />
        </mxCell>
        <mxCell id="cPIrNWwGML68DfH43bNu-3620" value="8" style="rounded=0;whiteSpace=wrap;html=1;fontSize=24;" vertex="1" parent="cPIrNWwGML68DfH43bNu-3894">
          <mxGeometry x="520" y="670" width="80" height="80" as="geometry" />
        </mxCell>
        <mxCell id="cPIrNWwGML68DfH43bNu-3621" value="16" style="rounded=0;whiteSpace=wrap;html=1;fontSize=24;" vertex="1" parent="cPIrNWwGML68DfH43bNu-3894">
          <mxGeometry x="360" y="520" width="160" height="160" as="geometry" />
        </mxCell>
        <mxCell id="cPIrNWwGML68DfH43bNu-3622" value="26" style="rounded=0;whiteSpace=wrap;html=1;fontSize=24;" vertex="1" parent="cPIrNWwGML68DfH43bNu-3894">
          <mxGeometry x="810" y="620" width="260" height="260" as="geometry" />
        </mxCell>
        <mxCell id="cPIrNWwGML68DfH43bNu-3623" value="24" style="rounded=0;whiteSpace=wrap;html=1;fontSize=24;" vertex="1" parent="cPIrNWwGML68DfH43bNu-3894">
          <mxGeometry x="520" y="430" width="240" height="240" as="geometry" />
        </mxCell>
        <mxCell id="cPIrNWwGML68DfH43bNu-3624" value="5" style="rounded=0;whiteSpace=wrap;html=1;fontSize=24;" vertex="1" parent="cPIrNWwGML68DfH43bNu-3894">
          <mxGeometry x="760" y="620" width="50" height="50" as="geometry" />
        </mxCell>
        <mxCell id="cPIrNWwGML68DfH43bNu-3625" value="38" style="rounded=0;whiteSpace=wrap;html=1;fontSize=24;" vertex="1" parent="cPIrNWwGML68DfH43bNu-3894">
          <mxGeometry x="1070" y="500" width="380" height="380" as="geometry" />
        </mxCell>
        <mxCell id="cPIrNWwGML68DfH43bNu-3626" value="19" style="rounded=0;whiteSpace=wrap;html=1;fontSize=24;" vertex="1" parent="cPIrNWwGML68DfH43bNu-3894">
          <mxGeometry x="760" y="430" width="190" height="190" as="geometry" />
        </mxCell>
        <mxCell id="cPIrNWwGML68DfH43bNu-3627" value="12" style="rounded=0;whiteSpace=wrap;html=1;fontSize=24;" vertex="1" parent="cPIrNWwGML68DfH43bNu-3894">
          <mxGeometry x="950" y="500" width="120" height="120" as="geometry" />
        </mxCell>
        <mxCell id="cPIrNWwGML68DfH43bNu-3628" value="50" style="rounded=0;whiteSpace=wrap;html=1;fontSize=24;" vertex="1" parent="cPIrNWwGML68DfH43bNu-3894">
          <mxGeometry x="950" width="500" height="500" as="geometry" />
        </mxCell>
        <mxCell id="cPIrNWwGML68DfH43bNu-3629" value="52" style="rounded=0;whiteSpace=wrap;html=1;fontSize=24;" vertex="1" parent="cPIrNWwGML68DfH43bNu-3894">
          <mxGeometry width="520" height="520" as="geometry" />
        </mxCell>
        <mxCell id="cPIrNWwGML68DfH43bNu-3630" value="43" style="rounded=0;whiteSpace=wrap;html=1;fontSize=24;" vertex="1" parent="cPIrNWwGML68DfH43bNu-3894">
          <mxGeometry x="520" width="430" height="430" as="geometry" />
        </mxCell>
        <mxCell id="cPIrNWwGML68DfH43bNu-3895" value="" style="group;flipV=1;" vertex="1" connectable="0" parent="1">
          <mxGeometry x="1680" y="11880" width="1450" height="1440" as="geometry" />
        </mxCell>
        <mxCell id="cPIrNWwGML68DfH43bNu-3653" value="42" style="rounded=0;whiteSpace=wrap;html=1;fontSize=24;" vertex="1" parent="cPIrNWwGML68DfH43bNu-3895">
          <mxGeometry y="1020" width="420" height="420" as="geometry" />
        </mxCell>
        <mxCell id="cPIrNWwGML68DfH43bNu-3654" value="48" style="rounded=0;whiteSpace=wrap;html=1;fontSize=24;" vertex="1" parent="cPIrNWwGML68DfH43bNu-3895">
          <mxGeometry x="420" y="960" width="480" height="480" as="geometry" />
        </mxCell>
        <mxCell id="cPIrNWwGML68DfH43bNu-3655" value="36" style="rounded=0;whiteSpace=wrap;html=1;fontSize=24;" vertex="1" parent="cPIrNWwGML68DfH43bNu-3895">
          <mxGeometry y="660" width="360" height="360" as="geometry" />
        </mxCell>
        <mxCell id="cPIrNWwGML68DfH43bNu-3656" value="6" style="rounded=0;whiteSpace=wrap;html=1;fontSize=24;" vertex="1" parent="cPIrNWwGML68DfH43bNu-3895">
          <mxGeometry x="360" y="960" width="60" height="60" as="geometry" />
        </mxCell>
        <mxCell id="cPIrNWwGML68DfH43bNu-3657" value="55" style="rounded=0;whiteSpace=wrap;html=1;fontSize=24;" vertex="1" parent="cPIrNWwGML68DfH43bNu-3895">
          <mxGeometry x="900" y="890" width="550" height="550" as="geometry" />
        </mxCell>
        <mxCell id="cPIrNWwGML68DfH43bNu-3658" value="30" style="rounded=0;whiteSpace=wrap;html=1;fontSize=24;" vertex="1" parent="cPIrNWwGML68DfH43bNu-3895">
          <mxGeometry x="360" y="660" width="300" height="300" as="geometry" />
        </mxCell>
        <mxCell id="cPIrNWwGML68DfH43bNu-3659" value="24" style="rounded=0;whiteSpace=wrap;html=1;fontSize=24;" vertex="1" parent="cPIrNWwGML68DfH43bNu-3895">
          <mxGeometry x="660" y="720" width="240" height="240" as="geometry" />
        </mxCell>
        <mxCell id="cPIrNWwGML68DfH43bNu-3660" value="17" style="rounded=0;whiteSpace=wrap;html=1;fontSize=24;" vertex="1" parent="cPIrNWwGML68DfH43bNu-3895">
          <mxGeometry x="900" y="720" width="170" height="170" as="geometry" />
        </mxCell>
        <mxCell id="cPIrNWwGML68DfH43bNu-3661" value="38" style="rounded=0;whiteSpace=wrap;html=1;fontSize=24;" vertex="1" parent="cPIrNWwGML68DfH43bNu-3895">
          <mxGeometry x="1070" y="510" width="380" height="380" as="geometry" />
        </mxCell>
        <mxCell id="cPIrNWwGML68DfH43bNu-3662" value="20" style="rounded=0;whiteSpace=wrap;html=1;fontSize=24;" vertex="1" parent="cPIrNWwGML68DfH43bNu-3895">
          <mxGeometry x="660" y="520" width="200" height="200" as="geometry" />
        </mxCell>
        <mxCell id="cPIrNWwGML68DfH43bNu-3663" value="21" style="rounded=0;whiteSpace=wrap;html=1;fontSize=24;" vertex="1" parent="cPIrNWwGML68DfH43bNu-3895">
          <mxGeometry x="860" y="510" width="210" height="210" as="geometry" />
        </mxCell>
        <mxCell id="cPIrNWwGML68DfH43bNu-3664" value="66" style="rounded=0;whiteSpace=wrap;html=1;fontSize=24;" vertex="1" parent="cPIrNWwGML68DfH43bNu-3895">
          <mxGeometry width="660" height="660" as="geometry" />
        </mxCell>
        <mxCell id="cPIrNWwGML68DfH43bNu-3665" value="11" style="rounded=0;whiteSpace=wrap;html=1;fontSize=24;" vertex="1" parent="cPIrNWwGML68DfH43bNu-3895">
          <mxGeometry x="660" y="410" width="110" height="110" as="geometry" />
        </mxCell>
        <mxCell id="cPIrNWwGML68DfH43bNu-3666" value="9" style="rounded=0;whiteSpace=wrap;html=1;fontSize=24;" vertex="1" parent="cPIrNWwGML68DfH43bNu-3895">
          <mxGeometry x="770" y="430" width="90" height="90" as="geometry" />
        </mxCell>
        <mxCell id="cPIrNWwGML68DfH43bNu-3667" value="8" style="rounded=0;whiteSpace=wrap;html=1;fontSize=24;" vertex="1" parent="cPIrNWwGML68DfH43bNu-3895">
          <mxGeometry x="860" y="430" width="80" height="80" as="geometry" />
        </mxCell>
        <mxCell id="cPIrNWwGML68DfH43bNu-3668" value="51" style="rounded=0;whiteSpace=wrap;html=1;fontSize=24;" vertex="1" parent="cPIrNWwGML68DfH43bNu-3895">
          <mxGeometry x="940" width="510" height="510" as="geometry" />
        </mxCell>
        <mxCell id="cPIrNWwGML68DfH43bNu-3669" value="2" style="rounded=0;whiteSpace=wrap;html=1;fontSize=24;" vertex="1" parent="cPIrNWwGML68DfH43bNu-3895">
          <mxGeometry x="770" y="410" width="20" height="20" as="geometry" />
        </mxCell>
        <mxCell id="cPIrNWwGML68DfH43bNu-3670" value="15" style="rounded=0;whiteSpace=wrap;html=1;fontSize=24;" vertex="1" parent="cPIrNWwGML68DfH43bNu-3895">
          <mxGeometry x="790" y="280" width="150" height="150" as="geometry" />
        </mxCell>
        <mxCell id="cPIrNWwGML68DfH43bNu-3671" value="13" style="rounded=0;whiteSpace=wrap;html=1;fontSize=24;" vertex="1" parent="cPIrNWwGML68DfH43bNu-3895">
          <mxGeometry x="660" y="280" width="130" height="130" as="geometry" />
        </mxCell>
        <mxCell id="cPIrNWwGML68DfH43bNu-3672" value="28" style="rounded=0;whiteSpace=wrap;html=1;fontSize=24;" vertex="1" parent="cPIrNWwGML68DfH43bNu-3895">
          <mxGeometry x="660" width="280" height="280" as="geometry" />
        </mxCell>
        <mxCell id="cPIrNWwGML68DfH43bNu-3900" value="" style="group;flipV=1;" vertex="1" connectable="0" parent="1">
          <mxGeometry x="1680" y="13425" width="1450" height="650" as="geometry" />
        </mxCell>
        <mxCell id="cPIrNWwGML68DfH43bNu-3687" value="33" style="rounded=0;whiteSpace=wrap;html=1;fontSize=24;fillColor=#f5f5f5;fontColor=#333333;strokeColor=#666666;" vertex="1" parent="cPIrNWwGML68DfH43bNu-3900">
          <mxGeometry x="650" width="330" height="330" as="geometry" />
        </mxCell>
        <mxCell id="cPIrNWwGML68DfH43bNu-3688" value="65" style="rounded=0;whiteSpace=wrap;html=1;fontSize=24;" vertex="1" parent="cPIrNWwGML68DfH43bNu-3900">
          <mxGeometry width="650" height="650" as="geometry" />
        </mxCell>
        <mxCell id="cPIrNWwGML68DfH43bNu-3681" value="22" style="rounded=0;whiteSpace=wrap;html=1;fontSize=24;fillColor=#dae8fc;strokeColor=#6c8ebf;container=0;" vertex="1" parent="cPIrNWwGML68DfH43bNu-3900">
          <mxGeometry x="1230" width="220" height="220" as="geometry" />
        </mxCell>
        <mxCell id="cPIrNWwGML68DfH43bNu-3684" value="25" style="rounded=0;whiteSpace=wrap;html=1;fontSize=24;fillColor=#dae8fc;strokeColor=#6c8ebf;container=0;" vertex="1" parent="cPIrNWwGML68DfH43bNu-3900">
          <mxGeometry x="980" width="250" height="250" as="geometry" />
        </mxCell>
        <mxCell id="cPIrNWwGML68DfH43bNu-3685" value="19" style="rounded=0;whiteSpace=wrap;html=1;fontSize=24;fillColor=#dae8fc;strokeColor=#6c8ebf;container=0;" vertex="1" parent="cPIrNWwGML68DfH43bNu-3900">
          <mxGeometry x="1260" y="220" width="190" height="190" as="geometry" />
        </mxCell>
        <mxCell id="cPIrNWwGML68DfH43bNu-3686" value="3" style="rounded=0;whiteSpace=wrap;html=1;fontSize=24;fillColor=#dae8fc;strokeColor=#6c8ebf;container=0;" vertex="1" parent="cPIrNWwGML68DfH43bNu-3900">
          <mxGeometry x="1230" y="220" width="30" height="30" as="geometry" />
        </mxCell>
        <mxCell id="cPIrNWwGML68DfH43bNu-3689" value="11" style="rounded=0;whiteSpace=wrap;html=1;fontSize=24;fillColor=#dae8fc;strokeColor=#6c8ebf;container=0;" vertex="1" parent="cPIrNWwGML68DfH43bNu-3900">
          <mxGeometry x="1150" y="250" width="110" height="110" as="geometry" />
        </mxCell>
        <mxCell id="cPIrNWwGML68DfH43bNu-3690" value="17" style="rounded=0;whiteSpace=wrap;html=1;fontSize=24;fillColor=#dae8fc;strokeColor=#6c8ebf;container=0;" vertex="1" parent="cPIrNWwGML68DfH43bNu-3900">
          <mxGeometry x="980" y="250" width="170" height="170" as="geometry" />
        </mxCell>
        <mxCell id="cPIrNWwGML68DfH43bNu-3691" value="5" style="rounded=0;whiteSpace=wrap;html=1;fontSize=24;fillColor=#dae8fc;strokeColor=#6c8ebf;container=0;" vertex="1" parent="cPIrNWwGML68DfH43bNu-3900">
          <mxGeometry x="1210" y="360" width="50" height="50" as="geometry" />
        </mxCell>
        <mxCell id="cPIrNWwGML68DfH43bNu-3692" value="6" style="rounded=0;whiteSpace=wrap;html=1;fontSize=24;fillColor=#dae8fc;strokeColor=#6c8ebf;container=0;" vertex="1" parent="cPIrNWwGML68DfH43bNu-3900">
          <mxGeometry x="1150" y="360" width="60" height="60" as="geometry" />
        </mxCell>
        <mxCell id="cPIrNWwGML68DfH43bNu-3693" value="24" style="rounded=0;whiteSpace=wrap;html=1;fontSize=24;fillColor=#dae8fc;strokeColor=#6c8ebf;container=0;" vertex="1" parent="cPIrNWwGML68DfH43bNu-3900">
          <mxGeometry x="1210" y="410" width="240" height="240" as="geometry" />
        </mxCell>
        <mxCell id="cPIrNWwGML68DfH43bNu-3694" value="23" style="rounded=0;whiteSpace=wrap;html=1;fontSize=24;fillColor=#dae8fc;strokeColor=#6c8ebf;container=0;" vertex="1" parent="cPIrNWwGML68DfH43bNu-3900">
          <mxGeometry x="980" y="420" width="230" height="230" as="geometry" />
        </mxCell>
        <mxCell id="cPIrNWwGML68DfH43bNu-3674" value="9" style="rounded=0;whiteSpace=wrap;html=1;fontSize=24;fillColor=#CCCCCC;fontColor=#333333;strokeColor=#999999;" vertex="1" parent="cPIrNWwGML68DfH43bNu-3900">
          <mxGeometry x="890" y="560" width="90" height="90" as="geometry" />
        </mxCell>
        <mxCell id="cPIrNWwGML68DfH43bNu-3675" value="10" style="rounded=0;whiteSpace=wrap;html=1;fontSize=24;fillColor=#CCCCCC;fontColor=#333333;strokeColor=#999999;" vertex="1" parent="cPIrNWwGML68DfH43bNu-3900">
          <mxGeometry x="790" y="550" width="100" height="100" as="geometry" />
        </mxCell>
        <mxCell id="cPIrNWwGML68DfH43bNu-3676" value="8" style="rounded=0;whiteSpace=wrap;html=1;fontSize=24;fillColor=#CCCCCC;fontColor=#333333;strokeColor=#999999;" vertex="1" parent="cPIrNWwGML68DfH43bNu-3900">
          <mxGeometry x="900" y="480" width="80" height="80" as="geometry" />
        </mxCell>
        <mxCell id="cPIrNWwGML68DfH43bNu-3677" value="1" style="rounded=0;whiteSpace=wrap;html=1;fontSize=24;fillColor=#CCCCCC;fontColor=#333333;strokeColor=#999999;" vertex="1" parent="cPIrNWwGML68DfH43bNu-3900">
          <mxGeometry x="890" y="550" width="10" height="10" as="geometry" />
        </mxCell>
        <mxCell id="cPIrNWwGML68DfH43bNu-3678" value="14" style="rounded=0;whiteSpace=wrap;html=1;fontSize=24;fillColor=#CCCCCC;fontColor=#333333;strokeColor=#999999;" vertex="1" parent="cPIrNWwGML68DfH43bNu-3900">
          <mxGeometry x="650" y="510" width="140" height="140" as="geometry" />
        </mxCell>
        <mxCell id="cPIrNWwGML68DfH43bNu-3679" value="7" style="rounded=0;whiteSpace=wrap;html=1;fontSize=24;fillColor=#CCCCCC;fontColor=#333333;strokeColor=#999999;" vertex="1" parent="cPIrNWwGML68DfH43bNu-3900">
          <mxGeometry x="830" y="480" width="70" height="70" as="geometry" />
        </mxCell>
        <mxCell id="cPIrNWwGML68DfH43bNu-3680" value="4" style="rounded=0;whiteSpace=wrap;html=1;fontSize=24;fillColor=#CCCCCC;fontColor=#333333;strokeColor=#999999;" vertex="1" parent="cPIrNWwGML68DfH43bNu-3900">
          <mxGeometry x="790" y="510" width="40" height="40" as="geometry" />
        </mxCell>
        <mxCell id="cPIrNWwGML68DfH43bNu-3682" value="18" style="rounded=0;whiteSpace=wrap;html=1;fontSize=24;fillColor=#CCCCCC;fontColor=#333333;strokeColor=#999999;" vertex="1" parent="cPIrNWwGML68DfH43bNu-3900">
          <mxGeometry x="650" y="330" width="180" height="180" as="geometry" />
        </mxCell>
        <mxCell id="cPIrNWwGML68DfH43bNu-3683" value="15" style="rounded=0;whiteSpace=wrap;html=1;fontSize=24;fillColor=#CCCCCC;fontColor=#333333;strokeColor=#999999;" vertex="1" parent="cPIrNWwGML68DfH43bNu-3900">
          <mxGeometry x="830" y="330" width="150" height="150" as="geometry" />
        </mxCell>
        <mxCell id="cPIrNWwGML68DfH43bNu-3650" value="66" style="rounded=0;whiteSpace=wrap;html=1;fontSize=24;fillColor=#f5f5f5;fontColor=#333333;strokeColor=#666666;" vertex="1" parent="1">
          <mxGeometry x="1670" y="10430" width="660" height="660" as="geometry" />
        </mxCell>
        <mxCell id="cPIrNWwGML68DfH43bNu-3901" value="" style="group;flipH=1;" vertex="1" connectable="0" parent="1">
          <mxGeometry x="1670" y="11090" width="660" height="640" as="geometry" />
        </mxCell>
        <mxCell id="cPIrNWwGML68DfH43bNu-3632" value="18" style="rounded=0;whiteSpace=wrap;html=1;fontSize=24;fillColor=#CCCCCC;strokeColor=#666666;fontColor=#333333;" vertex="1" parent="cPIrNWwGML68DfH43bNu-3901">
          <mxGeometry x="480" y="460" width="180" height="180" as="geometry" />
        </mxCell>
        <mxCell id="cPIrNWwGML68DfH43bNu-3633" value="20" style="rounded=0;whiteSpace=wrap;html=1;fontSize=24;fillColor=#CCCCCC;strokeColor=#666666;fontColor=#333333;" vertex="1" parent="cPIrNWwGML68DfH43bNu-3901">
          <mxGeometry x="280" y="440" width="200" height="200" as="geometry" />
        </mxCell>
        <mxCell id="cPIrNWwGML68DfH43bNu-3634" value="16" style="rounded=0;whiteSpace=wrap;html=1;fontSize=24;fillColor=#CCCCCC;strokeColor=#666666;fontColor=#333333;" vertex="1" parent="cPIrNWwGML68DfH43bNu-3901">
          <mxGeometry x="500" y="300" width="160" height="160" as="geometry" />
        </mxCell>
        <mxCell id="cPIrNWwGML68DfH43bNu-3635" value="2" style="rounded=0;whiteSpace=wrap;html=1;fontSize=24;fillColor=#CCCCCC;strokeColor=#666666;fontColor=#333333;" vertex="1" parent="cPIrNWwGML68DfH43bNu-3901">
          <mxGeometry x="480" y="440" width="20" height="20" as="geometry" />
        </mxCell>
        <mxCell id="cPIrNWwGML68DfH43bNu-3636" value="28" style="rounded=0;whiteSpace=wrap;html=1;fontSize=24;fillColor=#CCCCCC;strokeColor=#666666;fontColor=#333333;" vertex="1" parent="cPIrNWwGML68DfH43bNu-3901">
          <mxGeometry y="360" width="280" height="280" as="geometry" />
        </mxCell>
        <mxCell id="cPIrNWwGML68DfH43bNu-3637" value="14" style="rounded=0;whiteSpace=wrap;html=1;fontSize=24;fillColor=#CCCCCC;strokeColor=#666666;fontColor=#333333;" vertex="1" parent="cPIrNWwGML68DfH43bNu-3901">
          <mxGeometry x="360" y="300" width="140" height="140" as="geometry" />
        </mxCell>
        <mxCell id="cPIrNWwGML68DfH43bNu-3638" value="8" style="rounded=0;whiteSpace=wrap;html=1;fontSize=24;fillColor=#CCCCCC;strokeColor=#666666;fontColor=#333333;" vertex="1" parent="cPIrNWwGML68DfH43bNu-3901">
          <mxGeometry x="280" y="360" width="80" height="80" as="geometry" />
        </mxCell>
        <mxCell id="cPIrNWwGML68DfH43bNu-3640" value="36" style="rounded=0;whiteSpace=wrap;html=1;fontSize=24;fillColor=#CCCCCC;strokeColor=#666666;fontColor=#333333;" vertex="1" parent="cPIrNWwGML68DfH43bNu-3901">
          <mxGeometry width="360" height="360" as="geometry" />
        </mxCell>
        <mxCell id="cPIrNWwGML68DfH43bNu-3641" value="30" style="rounded=0;whiteSpace=wrap;html=1;fontSize=24;fillColor=#CCCCCC;strokeColor=#666666;fontColor=#333333;" vertex="1" parent="cPIrNWwGML68DfH43bNu-3901">
          <mxGeometry x="360" width="300" height="300" as="geometry" />
        </mxCell>
        <mxCell id="cPIrNWwGML68DfH43bNu-3902" value="" style="group;flipV=1;flipH=1;" vertex="1" connectable="0" parent="1">
          <mxGeometry x="2330" y="10430" width="790" height="1300" as="geometry" />
        </mxCell>
        <mxCell id="cPIrNWwGML68DfH43bNu-3639" value="34" style="rounded=0;whiteSpace=wrap;html=1;fontSize=24;fillColor=#e1d5e7;strokeColor=#9673a6;" vertex="1" parent="cPIrNWwGML68DfH43bNu-3902">
          <mxGeometry x="450" width="340" height="340" as="geometry" />
        </mxCell>
        <mxCell id="cPIrNWwGML68DfH43bNu-3642" value="45" style="rounded=0;whiteSpace=wrap;html=1;fontSize=24;fillColor=#e1d5e7;strokeColor=#9673a6;" vertex="1" parent="cPIrNWwGML68DfH43bNu-3902">
          <mxGeometry width="450" height="450" as="geometry" />
        </mxCell>
        <mxCell id="cPIrNWwGML68DfH43bNu-3643" value="23" style="rounded=0;whiteSpace=wrap;html=1;fontSize=24;fillColor=#e1d5e7;strokeColor=#9673a6;" vertex="1" parent="cPIrNWwGML68DfH43bNu-3902">
          <mxGeometry x="560" y="340" width="230" height="230" as="geometry" />
        </mxCell>
        <mxCell id="cPIrNWwGML68DfH43bNu-3644" value="11" style="rounded=0;whiteSpace=wrap;html=1;fontSize=24;fillColor=#e1d5e7;strokeColor=#9673a6;" vertex="1" parent="cPIrNWwGML68DfH43bNu-3902">
          <mxGeometry x="450" y="340" width="110" height="110" as="geometry" />
        </mxCell>
        <mxCell id="cPIrNWwGML68DfH43bNu-3645" value="12" style="rounded=0;whiteSpace=wrap;html=1;fontSize=24;fillColor=#e1d5e7;strokeColor=#9673a6;" vertex="1" parent="cPIrNWwGML68DfH43bNu-3902">
          <mxGeometry x="440" y="450" width="120" height="120" as="geometry" />
        </mxCell>
        <mxCell id="cPIrNWwGML68DfH43bNu-3646" value="44" style="rounded=0;whiteSpace=wrap;html=1;fontSize=24;fillColor=#e1d5e7;strokeColor=#9673a6;" vertex="1" parent="cPIrNWwGML68DfH43bNu-3902">
          <mxGeometry y="450" width="440" height="440" as="geometry" />
        </mxCell>
        <mxCell id="cPIrNWwGML68DfH43bNu-3647" value="35" style="rounded=0;whiteSpace=wrap;html=1;fontSize=24;fillColor=#e1d5e7;strokeColor=#9673a6;" vertex="1" parent="cPIrNWwGML68DfH43bNu-3902">
          <mxGeometry x="440" y="570" width="350" height="350" as="geometry" />
        </mxCell>
        <mxCell id="cPIrNWwGML68DfH43bNu-3648" value="3" style="rounded=0;whiteSpace=wrap;html=1;fontSize=24;fillColor=#e1d5e7;strokeColor=#9673a6;" vertex="1" parent="cPIrNWwGML68DfH43bNu-3902">
          <mxGeometry x="410" y="890" width="30" height="30" as="geometry" />
        </mxCell>
        <mxCell id="cPIrNWwGML68DfH43bNu-3649" value="41" style="rounded=0;whiteSpace=wrap;html=1;fontSize=24;fillColor=#e1d5e7;strokeColor=#9673a6;" vertex="1" parent="cPIrNWwGML68DfH43bNu-3902">
          <mxGeometry y="890" width="410" height="410" as="geometry" />
        </mxCell>
        <mxCell id="cPIrNWwGML68DfH43bNu-3651" value="38" style="rounded=0;whiteSpace=wrap;html=1;fontSize=24;fillColor=#e1d5e7;strokeColor=#9673a6;" vertex="1" parent="cPIrNWwGML68DfH43bNu-3902">
          <mxGeometry x="410" y="920" width="380" height="380" as="geometry" />
        </mxCell>
        <mxCell id="cPIrNWwGML68DfH43bNu-3903" value="" style="edgeStyle=orthogonalEdgeStyle;rounded=0;orthogonalLoop=1;jettySize=auto;html=1;" edge="1" parent="1" source="cPIrNWwGML68DfH43bNu-3642" target="cPIrNWwGML68DfH43bNu-3631">
          <mxGeometry relative="1" as="geometry" />
        </mxCell>
        <mxCell id="cPIrNWwGML68DfH43bNu-3904" value="" style="group;flipV=1;" vertex="1" connectable="0" parent="1">
          <mxGeometry x="1710" y="14210" width="1450" height="1230" as="geometry" />
        </mxCell>
        <mxCell id="cPIrNWwGML68DfH43bNu-3696" value="33" style="rounded=0;whiteSpace=wrap;html=1;fontSize=24;" vertex="1" parent="cPIrNWwGML68DfH43bNu-3904">
          <mxGeometry y="900" width="330" height="330" as="geometry" />
        </mxCell>
        <mxCell id="cPIrNWwGML68DfH43bNu-3697" value="35" style="rounded=0;whiteSpace=wrap;html=1;fontSize=24;" vertex="1" parent="cPIrNWwGML68DfH43bNu-3904">
          <mxGeometry x="330" y="880" width="350" height="350" as="geometry" />
        </mxCell>
        <mxCell id="cPIrNWwGML68DfH43bNu-3698" value="17" style="rounded=0;whiteSpace=wrap;html=1;fontSize=24;" vertex="1" parent="cPIrNWwGML68DfH43bNu-3904">
          <mxGeometry y="730" width="170" height="170" as="geometry" />
        </mxCell>
        <mxCell id="cPIrNWwGML68DfH43bNu-3699" value="14" style="rounded=0;whiteSpace=wrap;html=1;fontSize=24;" vertex="1" parent="cPIrNWwGML68DfH43bNu-3904">
          <mxGeometry x="170" y="760" width="140" height="140" as="geometry" />
        </mxCell>
        <mxCell id="cPIrNWwGML68DfH43bNu-3700" value="2" style="rounded=0;whiteSpace=wrap;html=1;fontSize=24;" vertex="1" parent="cPIrNWwGML68DfH43bNu-3904">
          <mxGeometry x="310" y="880" width="20" height="20" as="geometry" />
        </mxCell>
        <mxCell id="cPIrNWwGML68DfH43bNu-3701" value="38" style="rounded=0;whiteSpace=wrap;html=1;fontSize=24;" vertex="1" parent="cPIrNWwGML68DfH43bNu-3904">
          <mxGeometry x="680" y="850" width="380" height="380" as="geometry" />
        </mxCell>
        <mxCell id="cPIrNWwGML68DfH43bNu-3702" value="12" style="rounded=0;whiteSpace=wrap;html=1;fontSize=24;" vertex="1" parent="cPIrNWwGML68DfH43bNu-3904">
          <mxGeometry x="310" y="760" width="120" height="120" as="geometry" />
        </mxCell>
        <mxCell id="cPIrNWwGML68DfH43bNu-3703" value="25" style="rounded=0;whiteSpace=wrap;html=1;fontSize=24;" vertex="1" parent="cPIrNWwGML68DfH43bNu-3904">
          <mxGeometry x="430" y="630" width="250" height="250" as="geometry" />
        </mxCell>
        <mxCell id="cPIrNWwGML68DfH43bNu-3704" value="3" style="rounded=0;whiteSpace=wrap;html=1;fontSize=24;" vertex="1" parent="cPIrNWwGML68DfH43bNu-3904">
          <mxGeometry x="170" y="730" width="30" height="30" as="geometry" />
        </mxCell>
        <mxCell id="cPIrNWwGML68DfH43bNu-3705" value="23" style="rounded=0;whiteSpace=wrap;html=1;fontSize=24;" vertex="1" parent="cPIrNWwGML68DfH43bNu-3904">
          <mxGeometry x="200" y="530" width="230" height="230" as="geometry" />
        </mxCell>
        <mxCell id="cPIrNWwGML68DfH43bNu-3706" value="20" style="rounded=0;whiteSpace=wrap;html=1;fontSize=24;" vertex="1" parent="cPIrNWwGML68DfH43bNu-3904">
          <mxGeometry y="530" width="200" height="200" as="geometry" />
        </mxCell>
        <mxCell id="cPIrNWwGML68DfH43bNu-3707" value="39" style="rounded=0;whiteSpace=wrap;html=1;fontSize=24;" vertex="1" parent="cPIrNWwGML68DfH43bNu-3904">
          <mxGeometry x="1060" y="840" width="390" height="390" as="geometry" />
        </mxCell>
        <mxCell id="cPIrNWwGML68DfH43bNu-3708" value="37" style="rounded=0;whiteSpace=wrap;html=1;fontSize=24;" vertex="1" parent="cPIrNWwGML68DfH43bNu-3904">
          <mxGeometry x="680" y="480" width="370" height="370" as="geometry" />
        </mxCell>
        <mxCell id="cPIrNWwGML68DfH43bNu-3709" value="1" style="rounded=0;whiteSpace=wrap;html=1;fontSize=24;" vertex="1" parent="cPIrNWwGML68DfH43bNu-3904">
          <mxGeometry x="1050" y="840" width="10" height="10" as="geometry" />
        </mxCell>
        <mxCell id="cPIrNWwGML68DfH43bNu-3710" value="10" style="rounded=0;whiteSpace=wrap;html=1;fontSize=24;" vertex="1" parent="cPIrNWwGML68DfH43bNu-3904">
          <mxGeometry x="430" y="530" width="100" height="100" as="geometry" />
        </mxCell>
        <mxCell id="cPIrNWwGML68DfH43bNu-3711" value="15" style="rounded=0;whiteSpace=wrap;html=1;fontSize=24;" vertex="1" parent="cPIrNWwGML68DfH43bNu-3904">
          <mxGeometry x="530" y="480" width="150" height="150" as="geometry" />
        </mxCell>
        <mxCell id="cPIrNWwGML68DfH43bNu-3712" value="40" style="rounded=0;whiteSpace=wrap;html=1;fontSize=24;" vertex="1" parent="cPIrNWwGML68DfH43bNu-3904">
          <mxGeometry x="1050" y="440" width="400" height="400" as="geometry" />
        </mxCell>
        <mxCell id="cPIrNWwGML68DfH43bNu-3713" value="53" style="rounded=0;whiteSpace=wrap;html=1;fontSize=24;" vertex="1" parent="cPIrNWwGML68DfH43bNu-3904">
          <mxGeometry width="530" height="530" as="geometry" />
        </mxCell>
        <mxCell id="cPIrNWwGML68DfH43bNu-3714" value="48" style="rounded=0;whiteSpace=wrap;html=1;fontSize=24;" vertex="1" parent="cPIrNWwGML68DfH43bNu-3904">
          <mxGeometry x="530" width="480" height="480" as="geometry" />
        </mxCell>
        <mxCell id="cPIrNWwGML68DfH43bNu-3715" value="4" style="rounded=0;whiteSpace=wrap;html=1;fontSize=24;" vertex="1" parent="cPIrNWwGML68DfH43bNu-3904">
          <mxGeometry x="1010" y="440" width="40" height="40" as="geometry" />
        </mxCell>
        <mxCell id="cPIrNWwGML68DfH43bNu-3716" value="44" style="rounded=0;whiteSpace=wrap;html=1;fontSize=24;" vertex="1" parent="cPIrNWwGML68DfH43bNu-3904">
          <mxGeometry x="1010" width="440" height="440" as="geometry" />
        </mxCell>
        <mxCell id="cPIrNWwGML68DfH43bNu-3905" value="" style="group;flipV=0;flipH=1;fillColor=#dae8fc;strokeColor=#6c8ebf;" vertex="1" connectable="0" parent="1">
          <mxGeometry x="2510" y="15930" width="650" height="470" as="geometry" />
        </mxCell>
        <mxCell id="cPIrNWwGML68DfH43bNu-3718" value="23" style="rounded=0;whiteSpace=wrap;html=1;fontSize=24;fillColor=#dae8fc;strokeColor=#6c8ebf;" vertex="1" parent="cPIrNWwGML68DfH43bNu-3905">
          <mxGeometry x="420" width="230" height="230" as="geometry" />
        </mxCell>
        <mxCell id="cPIrNWwGML68DfH43bNu-3719" value="17" style="rounded=0;whiteSpace=wrap;html=1;fontSize=24;fillColor=#dae8fc;strokeColor=#6c8ebf;" vertex="1" parent="cPIrNWwGML68DfH43bNu-3905">
          <mxGeometry x="250" width="170" height="170" as="geometry" />
        </mxCell>
        <mxCell id="cPIrNWwGML68DfH43bNu-3720" value="25" style="rounded=0;whiteSpace=wrap;html=1;fontSize=24;fillColor=#dae8fc;strokeColor=#6c8ebf;" vertex="1" parent="cPIrNWwGML68DfH43bNu-3905">
          <mxGeometry width="250" height="250" as="geometry" />
        </mxCell>
        <mxCell id="cPIrNWwGML68DfH43bNu-3721" value="6" style="rounded=0;whiteSpace=wrap;html=1;fontSize=24;fillColor=#dae8fc;strokeColor=#6c8ebf;" vertex="1" parent="cPIrNWwGML68DfH43bNu-3905">
          <mxGeometry x="360" y="170" width="60" height="60" as="geometry" />
        </mxCell>
        <mxCell id="cPIrNWwGML68DfH43bNu-3722" value="11" style="rounded=0;whiteSpace=wrap;html=1;fontSize=24;fillColor=#dae8fc;strokeColor=#6c8ebf;" vertex="1" parent="cPIrNWwGML68DfH43bNu-3905">
          <mxGeometry x="250" y="170" width="110" height="110" as="geometry" />
        </mxCell>
        <mxCell id="cPIrNWwGML68DfH43bNu-3723" value="24" style="rounded=0;whiteSpace=wrap;html=1;fontSize=24;fillColor=#dae8fc;strokeColor=#6c8ebf;" vertex="1" parent="cPIrNWwGML68DfH43bNu-3905">
          <mxGeometry x="410" y="230" width="240" height="240" as="geometry" />
        </mxCell>
        <mxCell id="cPIrNWwGML68DfH43bNu-3724" value="5" style="rounded=0;whiteSpace=wrap;html=1;fontSize=24;fillColor=#dae8fc;strokeColor=#6c8ebf;" vertex="1" parent="cPIrNWwGML68DfH43bNu-3905">
          <mxGeometry x="360" y="230" width="50" height="50" as="geometry" />
        </mxCell>
        <mxCell id="cPIrNWwGML68DfH43bNu-3726" value="3" style="rounded=0;whiteSpace=wrap;html=1;fontSize=24;fillColor=#dae8fc;strokeColor=#6c8ebf;" vertex="1" parent="cPIrNWwGML68DfH43bNu-3905">
          <mxGeometry x="220" y="250" width="30" height="30" as="geometry" />
        </mxCell>
        <mxCell id="cPIrNWwGML68DfH43bNu-3727" value="22" style="rounded=0;whiteSpace=wrap;html=1;fontSize=24;fillColor=#dae8fc;strokeColor=#6c8ebf;" vertex="1" parent="cPIrNWwGML68DfH43bNu-3905">
          <mxGeometry y="250" width="220" height="220" as="geometry" />
        </mxCell>
        <mxCell id="cPIrNWwGML68DfH43bNu-3728" value="19" style="rounded=0;whiteSpace=wrap;html=1;fontSize=24;fillColor=#dae8fc;strokeColor=#6c8ebf;" vertex="1" parent="cPIrNWwGML68DfH43bNu-3905">
          <mxGeometry x="220" y="280" width="190" height="190" as="geometry" />
        </mxCell>
        <mxCell id="cPIrNWwGML68DfH43bNu-3906" value="" style="group;flipV=1;" vertex="1" connectable="0" parent="1">
          <mxGeometry x="1740" y="16530" width="1450" height="1400" as="geometry" />
        </mxCell>
        <mxCell id="cPIrNWwGML68DfH43bNu-3740" value="69" style="rounded=0;whiteSpace=wrap;html=1;fontSize=24;" vertex="1" parent="cPIrNWwGML68DfH43bNu-3906">
          <mxGeometry y="710" width="690" height="690" as="geometry" />
        </mxCell>
        <mxCell id="cPIrNWwGML68DfH43bNu-3741" value="28" style="rounded=0;whiteSpace=wrap;html=1;fontSize=24;" vertex="1" parent="cPIrNWwGML68DfH43bNu-3906">
          <mxGeometry x="690" y="1120" width="280" height="280" as="geometry" />
        </mxCell>
        <mxCell id="cPIrNWwGML68DfH43bNu-3742" value="48" style="rounded=0;whiteSpace=wrap;html=1;fontSize=24;" vertex="1" parent="cPIrNWwGML68DfH43bNu-3906">
          <mxGeometry x="970" y="920" width="480" height="480" as="geometry" />
        </mxCell>
        <mxCell id="cPIrNWwGML68DfH43bNu-3743" value="17" style="rounded=0;whiteSpace=wrap;html=1;fontSize=24;" vertex="1" parent="cPIrNWwGML68DfH43bNu-3906">
          <mxGeometry x="690" y="950" width="170" height="170" as="geometry" />
        </mxCell>
        <mxCell id="cPIrNWwGML68DfH43bNu-3744" value="11" style="rounded=0;whiteSpace=wrap;html=1;fontSize=24;" vertex="1" parent="cPIrNWwGML68DfH43bNu-3906">
          <mxGeometry x="860" y="1010" width="110" height="110" as="geometry" />
        </mxCell>
        <mxCell id="cPIrNWwGML68DfH43bNu-3745" value="6" style="rounded=0;whiteSpace=wrap;html=1;fontSize=24;" vertex="1" parent="cPIrNWwGML68DfH43bNu-3906">
          <mxGeometry x="860" y="950" width="60" height="60" as="geometry" />
        </mxCell>
        <mxCell id="cPIrNWwGML68DfH43bNu-3746" value="5" style="rounded=0;whiteSpace=wrap;html=1;fontSize=24;" vertex="1" parent="cPIrNWwGML68DfH43bNu-3906">
          <mxGeometry x="920" y="960" width="50" height="50" as="geometry" />
        </mxCell>
        <mxCell id="cPIrNWwGML68DfH43bNu-3747" value="1" style="rounded=0;whiteSpace=wrap;html=1;fontSize=24;" vertex="1" parent="cPIrNWwGML68DfH43bNu-3906">
          <mxGeometry x="920" y="950" width="10" height="10" as="geometry" />
        </mxCell>
        <mxCell id="cPIrNWwGML68DfH43bNu-3748" value="4" style="rounded=0;whiteSpace=wrap;html=1;fontSize=24;" vertex="1" parent="cPIrNWwGML68DfH43bNu-3906">
          <mxGeometry x="930" y="920" width="40" height="40" as="geometry" />
        </mxCell>
        <mxCell id="cPIrNWwGML68DfH43bNu-3749" value="24" style="rounded=0;whiteSpace=wrap;html=1;fontSize=24;" vertex="1" parent="cPIrNWwGML68DfH43bNu-3906">
          <mxGeometry x="690" y="710" width="240" height="240" as="geometry" />
        </mxCell>
        <mxCell id="cPIrNWwGML68DfH43bNu-3750" value="21" style="rounded=0;whiteSpace=wrap;html=1;fontSize=24;" vertex="1" parent="cPIrNWwGML68DfH43bNu-3906">
          <mxGeometry x="930" y="710" width="210" height="210" as="geometry" />
        </mxCell>
        <mxCell id="cPIrNWwGML68DfH43bNu-3751" value="31" style="rounded=0;whiteSpace=wrap;html=1;fontSize=24;" vertex="1" parent="cPIrNWwGML68DfH43bNu-3906">
          <mxGeometry x="1140" y="610" width="310" height="310" as="geometry" />
        </mxCell>
        <mxCell id="cPIrNWwGML68DfH43bNu-3752" value="71" style="rounded=0;whiteSpace=wrap;html=1;fontSize=24;" vertex="1" parent="cPIrNWwGML68DfH43bNu-3906">
          <mxGeometry width="710" height="710" as="geometry" />
        </mxCell>
        <mxCell id="cPIrNWwGML68DfH43bNu-3753" value="33" style="rounded=0;whiteSpace=wrap;html=1;fontSize=24;" vertex="1" parent="cPIrNWwGML68DfH43bNu-3906">
          <mxGeometry x="710" y="380" width="330" height="330" as="geometry" />
        </mxCell>
        <mxCell id="cPIrNWwGML68DfH43bNu-3754" value="10" style="rounded=0;whiteSpace=wrap;html=1;fontSize=24;" vertex="1" parent="cPIrNWwGML68DfH43bNu-3906">
          <mxGeometry x="1040" y="610" width="100" height="100" as="geometry" />
        </mxCell>
        <mxCell id="cPIrNWwGML68DfH43bNu-3755" value="16" style="rounded=0;whiteSpace=wrap;html=1;fontSize=24;" vertex="1" parent="cPIrNWwGML68DfH43bNu-3906">
          <mxGeometry x="1040" y="450" width="160" height="160" as="geometry" />
        </mxCell>
        <mxCell id="cPIrNWwGML68DfH43bNu-3756" value="25" style="rounded=0;whiteSpace=wrap;html=1;fontSize=24;" vertex="1" parent="cPIrNWwGML68DfH43bNu-3906">
          <mxGeometry x="1200" y="360" width="250" height="250" as="geometry" />
        </mxCell>
        <mxCell id="cPIrNWwGML68DfH43bNu-3757" value="7" style="rounded=0;whiteSpace=wrap;html=1;fontSize=24;" vertex="1" parent="cPIrNWwGML68DfH43bNu-3906">
          <mxGeometry x="1040" y="380" width="70" height="70" as="geometry" />
        </mxCell>
        <mxCell id="cPIrNWwGML68DfH43bNu-3758" value="9" style="rounded=0;whiteSpace=wrap;html=1;fontSize=24;" vertex="1" parent="cPIrNWwGML68DfH43bNu-3906">
          <mxGeometry x="1110" y="360" width="90" height="90" as="geometry" />
        </mxCell>
        <mxCell id="cPIrNWwGML68DfH43bNu-3759" value="38" style="rounded=0;whiteSpace=wrap;html=1;fontSize=24;" vertex="1" parent="cPIrNWwGML68DfH43bNu-3906">
          <mxGeometry x="710" width="380" height="380" as="geometry" />
        </mxCell>
        <mxCell id="cPIrNWwGML68DfH43bNu-3760" value="2" style="rounded=0;whiteSpace=wrap;html=1;fontSize=24;" vertex="1" parent="cPIrNWwGML68DfH43bNu-3906">
          <mxGeometry x="1090" y="360" width="20" height="20" as="geometry" />
        </mxCell>
        <mxCell id="cPIrNWwGML68DfH43bNu-3761" value="36" style="rounded=0;whiteSpace=wrap;html=1;fontSize=24;" vertex="1" parent="cPIrNWwGML68DfH43bNu-3906">
          <mxGeometry x="1090" width="360" height="360" as="geometry" />
        </mxCell>
        <mxCell id="cPIrNWwGML68DfH43bNu-3907" value="" style="group;flipV=1;" vertex="1" connectable="0" parent="1">
          <mxGeometry x="1750" y="18060" width="1450" height="1390" as="geometry" />
        </mxCell>
        <mxCell id="cPIrNWwGML68DfH43bNu-3763" value="40" style="rounded=0;whiteSpace=wrap;html=1;fontSize=24;" vertex="1" parent="cPIrNWwGML68DfH43bNu-3907">
          <mxGeometry y="990" width="400" height="400" as="geometry" />
        </mxCell>
        <mxCell id="cPIrNWwGML68DfH43bNu-3764" value="31" style="rounded=0;whiteSpace=wrap;html=1;fontSize=24;" vertex="1" parent="cPIrNWwGML68DfH43bNu-3907">
          <mxGeometry x="400" y="1080" width="310" height="310" as="geometry" />
        </mxCell>
        <mxCell id="cPIrNWwGML68DfH43bNu-3765" value="28" style="rounded=0;whiteSpace=wrap;html=1;fontSize=24;" vertex="1" parent="cPIrNWwGML68DfH43bNu-3907">
          <mxGeometry x="710" y="1110" width="280" height="280" as="geometry" />
        </mxCell>
        <mxCell id="cPIrNWwGML68DfH43bNu-3766" value="46" style="rounded=0;whiteSpace=wrap;html=1;fontSize=24;" vertex="1" parent="cPIrNWwGML68DfH43bNu-3907">
          <mxGeometry x="990" y="930" width="460" height="460" as="geometry" />
        </mxCell>
        <mxCell id="cPIrNWwGML68DfH43bNu-3767" value="3" style="rounded=0;whiteSpace=wrap;html=1;fontSize=24;" vertex="1" parent="cPIrNWwGML68DfH43bNu-3907">
          <mxGeometry x="710" y="1080" width="30" height="30" as="geometry" />
        </mxCell>
        <mxCell id="cPIrNWwGML68DfH43bNu-3768" value="7" style="rounded=0;whiteSpace=wrap;html=1;fontSize=24;" vertex="1" parent="cPIrNWwGML68DfH43bNu-3907">
          <mxGeometry x="740" y="1040" width="70" height="70" as="geometry" />
        </mxCell>
        <mxCell id="cPIrNWwGML68DfH43bNu-3769" value="18" style="rounded=0;whiteSpace=wrap;html=1;fontSize=24;" vertex="1" parent="cPIrNWwGML68DfH43bNu-3907">
          <mxGeometry x="810" y="930" width="180" height="180" as="geometry" />
        </mxCell>
        <mxCell id="cPIrNWwGML68DfH43bNu-3770" value="9" style="rounded=0;whiteSpace=wrap;html=1;fontSize=24;" vertex="1" parent="cPIrNWwGML68DfH43bNu-3907">
          <mxGeometry x="400" y="990" width="90" height="90" as="geometry" />
        </mxCell>
        <mxCell id="cPIrNWwGML68DfH43bNu-3771" value="21" style="rounded=0;whiteSpace=wrap;html=1;fontSize=24;" vertex="1" parent="cPIrNWwGML68DfH43bNu-3907">
          <mxGeometry x="490" y="870" width="210" height="210" as="geometry" />
        </mxCell>
        <mxCell id="cPIrNWwGML68DfH43bNu-3772" value="4" style="rounded=0;whiteSpace=wrap;html=1;fontSize=24;" vertex="1" parent="cPIrNWwGML68DfH43bNu-3907">
          <mxGeometry x="700" y="1040" width="40" height="40" as="geometry" />
        </mxCell>
        <mxCell id="cPIrNWwGML68DfH43bNu-3773" value="11" style="rounded=0;whiteSpace=wrap;html=1;fontSize=24;" vertex="1" parent="cPIrNWwGML68DfH43bNu-3907">
          <mxGeometry x="700" y="930" width="110" height="110" as="geometry" />
        </mxCell>
        <mxCell id="cPIrNWwGML68DfH43bNu-3774" value="37" style="rounded=0;whiteSpace=wrap;html=1;fontSize=24;" vertex="1" parent="cPIrNWwGML68DfH43bNu-3907">
          <mxGeometry y="620" width="370" height="370" as="geometry" />
        </mxCell>
        <mxCell id="cPIrNWwGML68DfH43bNu-3775" value="12" style="rounded=0;whiteSpace=wrap;html=1;fontSize=24;" vertex="1" parent="cPIrNWwGML68DfH43bNu-3907">
          <mxGeometry x="370" y="870" width="120" height="120" as="geometry" />
        </mxCell>
        <mxCell id="cPIrNWwGML68DfH43bNu-3776" value="6" style="rounded=0;whiteSpace=wrap;html=1;fontSize=24;" vertex="1" parent="cPIrNWwGML68DfH43bNu-3907">
          <mxGeometry x="700" y="870" width="60" height="60" as="geometry" />
        </mxCell>
        <mxCell id="cPIrNWwGML68DfH43bNu-3777" value="20" style="rounded=0;whiteSpace=wrap;html=1;fontSize=24;" vertex="1" parent="cPIrNWwGML68DfH43bNu-3907">
          <mxGeometry x="760" y="730" width="200" height="200" as="geometry" />
        </mxCell>
        <mxCell id="cPIrNWwGML68DfH43bNu-3778" value="25" style="rounded=0;whiteSpace=wrap;html=1;fontSize=24;" vertex="1" parent="cPIrNWwGML68DfH43bNu-3907">
          <mxGeometry x="370" y="620" width="250" height="250" as="geometry" />
        </mxCell>
        <mxCell id="cPIrNWwGML68DfH43bNu-3779" value="14" style="rounded=0;whiteSpace=wrap;html=1;fontSize=24;" vertex="1" parent="cPIrNWwGML68DfH43bNu-3907">
          <mxGeometry x="620" y="730" width="140" height="140" as="geometry" />
        </mxCell>
        <mxCell id="cPIrNWwGML68DfH43bNu-3780" value="49" style="rounded=0;whiteSpace=wrap;html=1;fontSize=24;" vertex="1" parent="cPIrNWwGML68DfH43bNu-3907">
          <mxGeometry x="960" y="440" width="490" height="490" as="geometry" />
        </mxCell>
        <mxCell id="cPIrNWwGML68DfH43bNu-3781" value="34" style="rounded=0;whiteSpace=wrap;html=1;fontSize=24;" vertex="1" parent="cPIrNWwGML68DfH43bNu-3907">
          <mxGeometry x="620" y="390" width="340" height="340" as="geometry" />
        </mxCell>
        <mxCell id="cPIrNWwGML68DfH43bNu-3782" value="5" style="rounded=0;whiteSpace=wrap;html=1;fontSize=24;" vertex="1" parent="cPIrNWwGML68DfH43bNu-3907">
          <mxGeometry x="960" y="390" width="50" height="50" as="geometry" />
        </mxCell>
        <mxCell id="cPIrNWwGML68DfH43bNu-3783" value="44" style="rounded=0;whiteSpace=wrap;html=1;fontSize=24;" vertex="1" parent="cPIrNWwGML68DfH43bNu-3907">
          <mxGeometry x="1010" width="440" height="440" as="geometry" />
        </mxCell>
        <mxCell id="cPIrNWwGML68DfH43bNu-3784" value="62" style="rounded=0;whiteSpace=wrap;html=1;fontSize=24;" vertex="1" parent="cPIrNWwGML68DfH43bNu-3907">
          <mxGeometry width="620" height="620" as="geometry" />
        </mxCell>
        <mxCell id="cPIrNWwGML68DfH43bNu-3785" value="39" style="rounded=0;whiteSpace=wrap;html=1;fontSize=24;" vertex="1" parent="cPIrNWwGML68DfH43bNu-3907">
          <mxGeometry x="620" width="390" height="390" as="geometry" />
        </mxCell>
        <mxCell id="cPIrNWwGML68DfH43bNu-3908" value="" style="group;flipV=1;" vertex="1" connectable="0" parent="1">
          <mxGeometry x="1740" y="19610" width="1450" height="1450" as="geometry" />
        </mxCell>
        <mxCell id="cPIrNWwGML68DfH43bNu-3787" value="31" style="rounded=0;whiteSpace=wrap;html=1;fontSize=24;" vertex="1" parent="cPIrNWwGML68DfH43bNu-3908">
          <mxGeometry y="1140" width="310" height="310" as="geometry" />
        </mxCell>
        <mxCell id="cPIrNWwGML68DfH43bNu-3788" value="32" style="rounded=0;whiteSpace=wrap;html=1;fontSize=24;" vertex="1" parent="cPIrNWwGML68DfH43bNu-3908">
          <mxGeometry x="310" y="1130" width="320" height="320" as="geometry" />
        </mxCell>
        <mxCell id="cPIrNWwGML68DfH43bNu-3789" value="30" style="rounded=0;whiteSpace=wrap;html=1;fontSize=24;" vertex="1" parent="cPIrNWwGML68DfH43bNu-3908">
          <mxGeometry y="840" width="300" height="300" as="geometry" />
        </mxCell>
        <mxCell id="cPIrNWwGML68DfH43bNu-3790" value="1" style="rounded=0;whiteSpace=wrap;html=1;fontSize=24;" vertex="1" parent="cPIrNWwGML68DfH43bNu-3908">
          <mxGeometry x="300" y="1130" width="10" height="10" as="geometry" />
        </mxCell>
        <mxCell id="cPIrNWwGML68DfH43bNu-3791" value="36" style="rounded=0;whiteSpace=wrap;html=1;fontSize=24;" vertex="1" parent="cPIrNWwGML68DfH43bNu-3908">
          <mxGeometry x="630" y="1090" width="360" height="360" as="geometry" />
        </mxCell>
        <mxCell id="cPIrNWwGML68DfH43bNu-3792" value="29" style="rounded=0;whiteSpace=wrap;html=1;fontSize=24;" vertex="1" parent="cPIrNWwGML68DfH43bNu-3908">
          <mxGeometry x="300" y="840" width="290" height="290" as="geometry" />
        </mxCell>
        <mxCell id="cPIrNWwGML68DfH43bNu-3793" value="4" style="rounded=0;whiteSpace=wrap;html=1;fontSize=24;" vertex="1" parent="cPIrNWwGML68DfH43bNu-3908">
          <mxGeometry x="590" y="1090" width="40" height="40" as="geometry" />
        </mxCell>
        <mxCell id="cPIrNWwGML68DfH43bNu-3794" value="22" style="rounded=0;whiteSpace=wrap;html=1;fontSize=24;" vertex="1" parent="cPIrNWwGML68DfH43bNu-3908">
          <mxGeometry x="990" y="1230" width="220" height="220" as="geometry" />
        </mxCell>
        <mxCell id="cPIrNWwGML68DfH43bNu-3795" value="24" style="rounded=0;whiteSpace=wrap;html=1;fontSize=24;" vertex="1" parent="cPIrNWwGML68DfH43bNu-3908">
          <mxGeometry x="1210" y="1210" width="240" height="240" as="geometry" />
        </mxCell>
        <mxCell id="cPIrNWwGML68DfH43bNu-3796" value="20" style="rounded=0;whiteSpace=wrap;html=1;fontSize=24;" vertex="1" parent="cPIrNWwGML68DfH43bNu-3908">
          <mxGeometry x="990" y="1030" width="200" height="200" as="geometry" />
        </mxCell>
        <mxCell id="cPIrNWwGML68DfH43bNu-3797" value="2" style="rounded=0;whiteSpace=wrap;html=1;fontSize=24;" vertex="1" parent="cPIrNWwGML68DfH43bNu-3908">
          <mxGeometry x="1190" y="1210" width="20" height="20" as="geometry" />
        </mxCell>
        <mxCell id="cPIrNWwGML68DfH43bNu-3798" value="26" style="rounded=0;whiteSpace=wrap;html=1;fontSize=24;" vertex="1" parent="cPIrNWwGML68DfH43bNu-3908">
          <mxGeometry x="1190" y="950" width="260" height="260" as="geometry" />
        </mxCell>
        <mxCell id="cPIrNWwGML68DfH43bNu-3799" value="25" style="rounded=0;whiteSpace=wrap;html=1;fontSize=24;" vertex="1" parent="cPIrNWwGML68DfH43bNu-3908">
          <mxGeometry x="590" y="840" width="250" height="250" as="geometry" />
        </mxCell>
        <mxCell id="cPIrNWwGML68DfH43bNu-3800" value="9" style="rounded=0;whiteSpace=wrap;html=1;fontSize=24;" vertex="1" parent="cPIrNWwGML68DfH43bNu-3908">
          <mxGeometry x="840" y="1000" width="90" height="90" as="geometry" />
        </mxCell>
        <mxCell id="cPIrNWwGML68DfH43bNu-3801" value="6" style="rounded=0;whiteSpace=wrap;html=1;fontSize=24;" vertex="1" parent="cPIrNWwGML68DfH43bNu-3908">
          <mxGeometry x="930" y="1030" width="60" height="60" as="geometry" />
        </mxCell>
        <mxCell id="cPIrNWwGML68DfH43bNu-3802" value="3" style="rounded=0;whiteSpace=wrap;html=1;fontSize=24;" vertex="1" parent="cPIrNWwGML68DfH43bNu-3908">
          <mxGeometry x="930" y="1000" width="30" height="30" as="geometry" />
        </mxCell>
        <mxCell id="cPIrNWwGML68DfH43bNu-3803" value="15" style="rounded=0;whiteSpace=wrap;html=1;fontSize=24;" vertex="1" parent="cPIrNWwGML68DfH43bNu-3908">
          <mxGeometry x="960" y="880" width="150" height="150" as="geometry" />
        </mxCell>
        <mxCell id="cPIrNWwGML68DfH43bNu-3804" value="8" style="rounded=0;whiteSpace=wrap;html=1;fontSize=24;" vertex="1" parent="cPIrNWwGML68DfH43bNu-3908">
          <mxGeometry x="1110" y="950" width="80" height="80" as="geometry" />
        </mxCell>
        <mxCell id="cPIrNWwGML68DfH43bNu-3805" value="12" style="rounded=0;whiteSpace=wrap;html=1;fontSize=24;" vertex="1" parent="cPIrNWwGML68DfH43bNu-3908">
          <mxGeometry x="840" y="880" width="120" height="120" as="geometry" />
        </mxCell>
        <mxCell id="cPIrNWwGML68DfH43bNu-3806" value="34" style="rounded=0;whiteSpace=wrap;html=1;fontSize=24;" vertex="1" parent="cPIrNWwGML68DfH43bNu-3908">
          <mxGeometry x="1110" y="610" width="340" height="340" as="geometry" />
        </mxCell>
        <mxCell id="cPIrNWwGML68DfH43bNu-3807" value="27" style="rounded=0;whiteSpace=wrap;html=1;fontSize=24;" vertex="1" parent="cPIrNWwGML68DfH43bNu-3908">
          <mxGeometry x="840" y="610" width="270" height="270" as="geometry" />
        </mxCell>
        <mxCell id="cPIrNWwGML68DfH43bNu-3808" value="84" style="rounded=0;whiteSpace=wrap;html=1;fontSize=24;" vertex="1" parent="cPIrNWwGML68DfH43bNu-3908">
          <mxGeometry width="840" height="840" as="geometry" />
        </mxCell>
        <mxCell id="cPIrNWwGML68DfH43bNu-3809" value="61" style="rounded=0;whiteSpace=wrap;html=1;fontSize=24;" vertex="1" parent="cPIrNWwGML68DfH43bNu-3908">
          <mxGeometry x="840" width="610" height="610" as="geometry" />
        </mxCell>
        <mxCell id="cPIrNWwGML68DfH43bNu-3909" value="" style="group;flipV=1;" vertex="1" connectable="0" parent="1">
          <mxGeometry x="1760" y="21230" width="1450" height="1390" as="geometry" />
        </mxCell>
        <mxCell id="cPIrNWwGML68DfH43bNu-3811" value="42" style="rounded=0;whiteSpace=wrap;html=1;fontSize=24;" vertex="1" parent="cPIrNWwGML68DfH43bNu-3909">
          <mxGeometry y="970" width="420" height="420" as="geometry" />
        </mxCell>
        <mxCell id="cPIrNWwGML68DfH43bNu-3812" value="25" style="rounded=0;whiteSpace=wrap;html=1;fontSize=24;" vertex="1" parent="cPIrNWwGML68DfH43bNu-3909">
          <mxGeometry x="420" y="1140" width="250" height="250" as="geometry" />
        </mxCell>
        <mxCell id="cPIrNWwGML68DfH43bNu-3813" value="33" style="rounded=0;whiteSpace=wrap;html=1;fontSize=24;" vertex="1" parent="cPIrNWwGML68DfH43bNu-3909">
          <mxGeometry x="670" y="1060" width="330" height="330" as="geometry" />
        </mxCell>
        <mxCell id="cPIrNWwGML68DfH43bNu-3814" value="17" style="rounded=0;whiteSpace=wrap;html=1;fontSize=24;" vertex="1" parent="cPIrNWwGML68DfH43bNu-3909">
          <mxGeometry x="420" y="970" width="170" height="170" as="geometry" />
        </mxCell>
        <mxCell id="cPIrNWwGML68DfH43bNu-3815" value="8" style="rounded=0;whiteSpace=wrap;html=1;fontSize=24;" vertex="1" parent="cPIrNWwGML68DfH43bNu-3909">
          <mxGeometry x="590" y="1060" width="80" height="80" as="geometry" />
        </mxCell>
        <mxCell id="cPIrNWwGML68DfH43bNu-3816" value="45" style="rounded=0;whiteSpace=wrap;html=1;fontSize=24;" vertex="1" parent="cPIrNWwGML68DfH43bNu-3909">
          <mxGeometry x="1000" y="940" width="450" height="450" as="geometry" />
        </mxCell>
        <mxCell id="cPIrNWwGML68DfH43bNu-3817" value="29" style="rounded=0;whiteSpace=wrap;html=1;fontSize=24;" vertex="1" parent="cPIrNWwGML68DfH43bNu-3909">
          <mxGeometry x="590" y="770" width="290" height="290" as="geometry" />
        </mxCell>
        <mxCell id="cPIrNWwGML68DfH43bNu-3818" value="12" style="rounded=0;whiteSpace=wrap;html=1;fontSize=24;" vertex="1" parent="cPIrNWwGML68DfH43bNu-3909">
          <mxGeometry x="880" y="940" width="120" height="120" as="geometry" />
        </mxCell>
        <mxCell id="cPIrNWwGML68DfH43bNu-3819" value="26" style="rounded=0;whiteSpace=wrap;html=1;fontSize=24;" vertex="1" parent="cPIrNWwGML68DfH43bNu-3909">
          <mxGeometry x="880" y="680" width="260" height="260" as="geometry" />
        </mxCell>
        <mxCell id="cPIrNWwGML68DfH43bNu-3820" value="31" style="rounded=0;whiteSpace=wrap;html=1;fontSize=24;" vertex="1" parent="cPIrNWwGML68DfH43bNu-3909">
          <mxGeometry x="1140" y="630" width="310" height="310" as="geometry" />
        </mxCell>
        <mxCell id="cPIrNWwGML68DfH43bNu-3821" value="39" style="rounded=0;whiteSpace=wrap;html=1;fontSize=24;" vertex="1" parent="cPIrNWwGML68DfH43bNu-3909">
          <mxGeometry y="580" width="390" height="390" as="geometry" />
        </mxCell>
        <mxCell id="cPIrNWwGML68DfH43bNu-3822" value="20" style="rounded=0;whiteSpace=wrap;html=1;fontSize=24;" vertex="1" parent="cPIrNWwGML68DfH43bNu-3909">
          <mxGeometry x="390" y="770" width="200" height="200" as="geometry" />
        </mxCell>
        <mxCell id="cPIrNWwGML68DfH43bNu-3823" value="19" style="rounded=0;whiteSpace=wrap;html=1;fontSize=24;" vertex="1" parent="cPIrNWwGML68DfH43bNu-3909">
          <mxGeometry x="390" y="580" width="190" height="190" as="geometry" />
        </mxCell>
        <mxCell id="cPIrNWwGML68DfH43bNu-3824" value="30" style="rounded=0;whiteSpace=wrap;html=1;fontSize=24;" vertex="1" parent="cPIrNWwGML68DfH43bNu-3909">
          <mxGeometry x="580" y="470" width="300" height="300" as="geometry" />
        </mxCell>
        <mxCell id="cPIrNWwGML68DfH43bNu-3825" value="21" style="rounded=0;whiteSpace=wrap;html=1;fontSize=24;" vertex="1" parent="cPIrNWwGML68DfH43bNu-3909">
          <mxGeometry x="880" y="470" width="210" height="210" as="geometry" />
        </mxCell>
        <mxCell id="cPIrNWwGML68DfH43bNu-3826" value="5" style="rounded=0;whiteSpace=wrap;html=1;fontSize=24;" vertex="1" parent="cPIrNWwGML68DfH43bNu-3909">
          <mxGeometry x="1090" y="630" width="50" height="50" as="geometry" />
        </mxCell>
        <mxCell id="cPIrNWwGML68DfH43bNu-3827" value="13" style="rounded=0;whiteSpace=wrap;html=1;fontSize=24;" vertex="1" parent="cPIrNWwGML68DfH43bNu-3909">
          <mxGeometry x="1090" y="500" width="130" height="130" as="geometry" />
        </mxCell>
        <mxCell id="cPIrNWwGML68DfH43bNu-3828" value="23" style="rounded=0;whiteSpace=wrap;html=1;fontSize=24;" vertex="1" parent="cPIrNWwGML68DfH43bNu-3909">
          <mxGeometry x="1220" y="400" width="230" height="230" as="geometry" />
        </mxCell>
        <mxCell id="cPIrNWwGML68DfH43bNu-3829" value="3" style="rounded=0;whiteSpace=wrap;html=1;fontSize=24;" vertex="1" parent="cPIrNWwGML68DfH43bNu-3909">
          <mxGeometry x="1090" y="470" width="30" height="30" as="geometry" />
        </mxCell>
        <mxCell id="cPIrNWwGML68DfH43bNu-3830" value="10" style="rounded=0;whiteSpace=wrap;html=1;fontSize=24;" vertex="1" parent="cPIrNWwGML68DfH43bNu-3909">
          <mxGeometry x="1120" y="400" width="100" height="100" as="geometry" />
        </mxCell>
        <mxCell id="cPIrNWwGML68DfH43bNu-3831" value="58" style="rounded=0;whiteSpace=wrap;html=1;fontSize=24;" vertex="1" parent="cPIrNWwGML68DfH43bNu-3909">
          <mxGeometry width="580" height="580" as="geometry" />
        </mxCell>
        <mxCell id="cPIrNWwGML68DfH43bNu-3832" value="47" style="rounded=0;whiteSpace=wrap;html=1;fontSize=24;" vertex="1" parent="cPIrNWwGML68DfH43bNu-3909">
          <mxGeometry x="580" width="470" height="470" as="geometry" />
        </mxCell>
        <mxCell id="cPIrNWwGML68DfH43bNu-3833" value="7" style="rounded=0;whiteSpace=wrap;html=1;fontSize=24;" vertex="1" parent="cPIrNWwGML68DfH43bNu-3909">
          <mxGeometry x="1050" y="400" width="70" height="70" as="geometry" />
        </mxCell>
        <mxCell id="cPIrNWwGML68DfH43bNu-3834" value="40" style="rounded=0;whiteSpace=wrap;html=1;fontSize=24;" vertex="1" parent="cPIrNWwGML68DfH43bNu-3909">
          <mxGeometry x="1050" width="400" height="400" as="geometry" />
        </mxCell>
        <mxCell id="cPIrNWwGML68DfH43bNu-3910" value="" style="group;flipV=1;" vertex="1" connectable="0" parent="1">
          <mxGeometry x="1740" y="22770" width="1450" height="1400" as="geometry" />
        </mxCell>
        <mxCell id="cPIrNWwGML68DfH43bNu-3836" value="65" style="rounded=0;whiteSpace=wrap;html=1;fontSize=24;" vertex="1" parent="cPIrNWwGML68DfH43bNu-3910">
          <mxGeometry y="750" width="650" height="650" as="geometry" />
        </mxCell>
        <mxCell id="cPIrNWwGML68DfH43bNu-3837" value="23" style="rounded=0;whiteSpace=wrap;html=1;fontSize=24;" vertex="1" parent="cPIrNWwGML68DfH43bNu-3910">
          <mxGeometry x="650" y="1170" width="230" height="230" as="geometry" />
        </mxCell>
        <mxCell id="cPIrNWwGML68DfH43bNu-3838" value="22" style="rounded=0;whiteSpace=wrap;html=1;fontSize=24;" vertex="1" parent="cPIrNWwGML68DfH43bNu-3910">
          <mxGeometry x="880" y="1180" width="220" height="220" as="geometry" />
        </mxCell>
        <mxCell id="cPIrNWwGML68DfH43bNu-3839" value="35" style="rounded=0;whiteSpace=wrap;html=1;fontSize=24;" vertex="1" parent="cPIrNWwGML68DfH43bNu-3910">
          <mxGeometry x="1100" y="1050" width="350" height="350" as="geometry" />
        </mxCell>
        <mxCell id="cPIrNWwGML68DfH43bNu-3840" value="1" style="rounded=0;whiteSpace=wrap;html=1;fontSize=24;" vertex="1" parent="cPIrNWwGML68DfH43bNu-3910">
          <mxGeometry x="880" y="1170" width="10" height="10" as="geometry" />
        </mxCell>
        <mxCell id="cPIrNWwGML68DfH43bNu-3841" value="21" style="rounded=0;whiteSpace=wrap;html=1;fontSize=24;" vertex="1" parent="cPIrNWwGML68DfH43bNu-3910">
          <mxGeometry x="890" y="970" width="210" height="210" as="geometry" />
        </mxCell>
        <mxCell id="cPIrNWwGML68DfH43bNu-3842" value="24" style="rounded=0;whiteSpace=wrap;html=1;fontSize=24;" vertex="1" parent="cPIrNWwGML68DfH43bNu-3910">
          <mxGeometry x="650" y="930" width="240" height="240" as="geometry" />
        </mxCell>
        <mxCell id="cPIrNWwGML68DfH43bNu-3843" value="8" style="rounded=0;whiteSpace=wrap;html=1;fontSize=24;" vertex="1" parent="cPIrNWwGML68DfH43bNu-3910">
          <mxGeometry x="1100" y="970" width="80" height="80" as="geometry" />
        </mxCell>
        <mxCell id="cPIrNWwGML68DfH43bNu-3844" value="27" style="rounded=0;whiteSpace=wrap;html=1;fontSize=24;" vertex="1" parent="cPIrNWwGML68DfH43bNu-3910">
          <mxGeometry x="1180" y="780" width="270" height="270" as="geometry" />
        </mxCell>
        <mxCell id="cPIrNWwGML68DfH43bNu-3845" value="10" style="rounded=0;whiteSpace=wrap;html=1;fontSize=24;" vertex="1" parent="cPIrNWwGML68DfH43bNu-3910">
          <mxGeometry x="890" y="870" width="100" height="100" as="geometry" />
        </mxCell>
        <mxCell id="cPIrNWwGML68DfH43bNu-3846" value="19" style="rounded=0;whiteSpace=wrap;html=1;fontSize=24;" vertex="1" parent="cPIrNWwGML68DfH43bNu-3910">
          <mxGeometry x="990" y="780" width="190" height="190" as="geometry" />
        </mxCell>
        <mxCell id="cPIrNWwGML68DfH43bNu-3847" value="18" style="rounded=0;whiteSpace=wrap;html=1;fontSize=24;" vertex="1" parent="cPIrNWwGML68DfH43bNu-3910">
          <mxGeometry x="650" y="750" width="180" height="180" as="geometry" />
        </mxCell>
        <mxCell id="cPIrNWwGML68DfH43bNu-3848" value="6" style="rounded=0;whiteSpace=wrap;html=1;fontSize=24;" vertex="1" parent="cPIrNWwGML68DfH43bNu-3910">
          <mxGeometry x="830" y="870" width="60" height="60" as="geometry" />
        </mxCell>
        <mxCell id="cPIrNWwGML68DfH43bNu-3849" value="7" style="rounded=0;whiteSpace=wrap;html=1;fontSize=24;" vertex="1" parent="cPIrNWwGML68DfH43bNu-3910">
          <mxGeometry x="830" y="800" width="70" height="70" as="geometry" />
        </mxCell>
        <mxCell id="cPIrNWwGML68DfH43bNu-3850" value="9" style="rounded=0;whiteSpace=wrap;html=1;fontSize=24;" vertex="1" parent="cPIrNWwGML68DfH43bNu-3910">
          <mxGeometry x="900" y="780" width="90" height="90" as="geometry" />
        </mxCell>
        <mxCell id="cPIrNWwGML68DfH43bNu-3851" value="5" style="rounded=0;whiteSpace=wrap;html=1;fontSize=24;" vertex="1" parent="cPIrNWwGML68DfH43bNu-3910">
          <mxGeometry x="830" y="750" width="50" height="50" as="geometry" />
        </mxCell>
        <mxCell id="cPIrNWwGML68DfH43bNu-3852" value="2" style="rounded=0;whiteSpace=wrap;html=1;fontSize=24;" vertex="1" parent="cPIrNWwGML68DfH43bNu-3910">
          <mxGeometry x="880" y="780" width="20" height="20" as="geometry" />
        </mxCell>
        <mxCell id="cPIrNWwGML68DfH43bNu-3853" value="16" style="rounded=0;whiteSpace=wrap;html=1;fontSize=24;" vertex="1" parent="cPIrNWwGML68DfH43bNu-3910">
          <mxGeometry x="880" y="620" width="160" height="160" as="geometry" />
        </mxCell>
        <mxCell id="cPIrNWwGML68DfH43bNu-3854" value="41" style="rounded=0;whiteSpace=wrap;html=1;fontSize=24;" vertex="1" parent="cPIrNWwGML68DfH43bNu-3910">
          <mxGeometry x="1040" y="370" width="410" height="410" as="geometry" />
        </mxCell>
        <mxCell id="cPIrNWwGML68DfH43bNu-3855" value="75" style="rounded=0;whiteSpace=wrap;html=1;fontSize=24;" vertex="1" parent="cPIrNWwGML68DfH43bNu-3910">
          <mxGeometry width="750" height="750" as="geometry" />
        </mxCell>
        <mxCell id="cPIrNWwGML68DfH43bNu-3856" value="13" style="rounded=0;whiteSpace=wrap;html=1;fontSize=24;" vertex="1" parent="cPIrNWwGML68DfH43bNu-3910">
          <mxGeometry x="750" y="620" width="130" height="130" as="geometry" />
        </mxCell>
        <mxCell id="cPIrNWwGML68DfH43bNu-3857" value="29" style="rounded=0;whiteSpace=wrap;html=1;fontSize=24;" vertex="1" parent="cPIrNWwGML68DfH43bNu-3910">
          <mxGeometry x="750" y="330" width="290" height="290" as="geometry" />
        </mxCell>
        <mxCell id="cPIrNWwGML68DfH43bNu-3858" value="4" style="rounded=0;whiteSpace=wrap;html=1;fontSize=24;" vertex="1" parent="cPIrNWwGML68DfH43bNu-3910">
          <mxGeometry x="1040" y="330" width="40" height="40" as="geometry" />
        </mxCell>
        <mxCell id="cPIrNWwGML68DfH43bNu-3859" value="37" style="rounded=0;whiteSpace=wrap;html=1;fontSize=24;" vertex="1" parent="cPIrNWwGML68DfH43bNu-3910">
          <mxGeometry x="1080" width="370" height="370" as="geometry" />
        </mxCell>
        <mxCell id="cPIrNWwGML68DfH43bNu-3860" value="33" style="rounded=0;whiteSpace=wrap;html=1;fontSize=24;" vertex="1" parent="cPIrNWwGML68DfH43bNu-3910">
          <mxGeometry x="750" width="330" height="330" as="geometry" />
        </mxCell>
        <mxCell id="cPIrNWwGML68DfH43bNu-3911" value="" style="group;flipV=1;" vertex="1" connectable="0" parent="1">
          <mxGeometry x="1750" y="24380" width="1450" height="1440" as="geometry" />
        </mxCell>
        <mxCell id="cPIrNWwGML68DfH43bNu-3862" value="27" style="rounded=0;whiteSpace=wrap;html=1;fontSize=24;" vertex="1" parent="cPIrNWwGML68DfH43bNu-3911">
          <mxGeometry y="1170" width="270" height="270" as="geometry" />
        </mxCell>
        <mxCell id="cPIrNWwGML68DfH43bNu-3863" value="40" style="rounded=0;whiteSpace=wrap;html=1;fontSize=24;" vertex="1" parent="cPIrNWwGML68DfH43bNu-3911">
          <mxGeometry x="270" y="1040" width="400" height="400" as="geometry" />
        </mxCell>
        <mxCell id="cPIrNWwGML68DfH43bNu-3864" value="17" style="rounded=0;whiteSpace=wrap;html=1;fontSize=24;" vertex="1" parent="cPIrNWwGML68DfH43bNu-3911">
          <mxGeometry y="1000" width="170" height="170" as="geometry" />
        </mxCell>
        <mxCell id="cPIrNWwGML68DfH43bNu-3865" value="10" style="rounded=0;whiteSpace=wrap;html=1;fontSize=24;" vertex="1" parent="cPIrNWwGML68DfH43bNu-3911">
          <mxGeometry x="170" y="1070" width="100" height="100" as="geometry" />
        </mxCell>
        <mxCell id="cPIrNWwGML68DfH43bNu-3866" value="7" style="rounded=0;whiteSpace=wrap;html=1;fontSize=24;" vertex="1" parent="cPIrNWwGML68DfH43bNu-3911">
          <mxGeometry x="170" y="1000" width="70" height="70" as="geometry" />
        </mxCell>
        <mxCell id="cPIrNWwGML68DfH43bNu-3867" value="3" style="rounded=0;whiteSpace=wrap;html=1;fontSize=24;" vertex="1" parent="cPIrNWwGML68DfH43bNu-3911">
          <mxGeometry x="240" y="1040" width="30" height="30" as="geometry" />
        </mxCell>
        <mxCell id="cPIrNWwGML68DfH43bNu-3868" value="34" style="rounded=0;whiteSpace=wrap;html=1;fontSize=24;" vertex="1" parent="cPIrNWwGML68DfH43bNu-3911">
          <mxGeometry x="670" y="1100" width="340" height="340" as="geometry" />
        </mxCell>
        <mxCell id="cPIrNWwGML68DfH43bNu-3869" value="44" style="rounded=0;whiteSpace=wrap;html=1;fontSize=24;" vertex="1" parent="cPIrNWwGML68DfH43bNu-3911">
          <mxGeometry x="1010" y="1000" width="440" height="440" as="geometry" />
        </mxCell>
        <mxCell id="cPIrNWwGML68DfH43bNu-3870" value="16" style="rounded=0;whiteSpace=wrap;html=1;fontSize=24;" vertex="1" parent="cPIrNWwGML68DfH43bNu-3911">
          <mxGeometry x="670" y="940" width="160" height="160" as="geometry" />
        </mxCell>
        <mxCell id="cPIrNWwGML68DfH43bNu-3871" value="18" style="rounded=0;whiteSpace=wrap;html=1;fontSize=24;" vertex="1" parent="cPIrNWwGML68DfH43bNu-3911">
          <mxGeometry x="830" y="920" width="180" height="180" as="geometry" />
        </mxCell>
        <mxCell id="cPIrNWwGML68DfH43bNu-3872" value="9" style="rounded=0;whiteSpace=wrap;html=1;fontSize=24;" vertex="1" parent="cPIrNWwGML68DfH43bNu-3911">
          <mxGeometry x="240" y="950" width="90" height="90" as="geometry" />
        </mxCell>
        <mxCell id="cPIrNWwGML68DfH43bNu-3873" value="19" style="rounded=0;whiteSpace=wrap;html=1;fontSize=24;" vertex="1" parent="cPIrNWwGML68DfH43bNu-3911">
          <mxGeometry y="810" width="190" height="190" as="geometry" />
        </mxCell>
        <mxCell id="cPIrNWwGML68DfH43bNu-3874" value="5" style="rounded=0;whiteSpace=wrap;html=1;fontSize=24;" vertex="1" parent="cPIrNWwGML68DfH43bNu-3911">
          <mxGeometry x="190" y="950" width="50" height="50" as="geometry" />
        </mxCell>
        <mxCell id="cPIrNWwGML68DfH43bNu-3875" value="23" style="rounded=0;whiteSpace=wrap;html=1;fontSize=24;" vertex="1" parent="cPIrNWwGML68DfH43bNu-3911">
          <mxGeometry x="330" y="810" width="230" height="230" as="geometry" />
        </mxCell>
        <mxCell id="cPIrNWwGML68DfH43bNu-3876" value="11" style="rounded=0;whiteSpace=wrap;html=1;fontSize=24;" vertex="1" parent="cPIrNWwGML68DfH43bNu-3911">
          <mxGeometry x="560" y="930" width="110" height="110" as="geometry" />
        </mxCell>
        <mxCell id="cPIrNWwGML68DfH43bNu-3877" value="14" style="rounded=0;whiteSpace=wrap;html=1;fontSize=24;" vertex="1" parent="cPIrNWwGML68DfH43bNu-3911">
          <mxGeometry x="190" y="810" width="140" height="140" as="geometry" />
        </mxCell>
        <mxCell id="cPIrNWwGML68DfH43bNu-3878" value="1" style="rounded=0;whiteSpace=wrap;html=1;fontSize=24;" vertex="1" parent="cPIrNWwGML68DfH43bNu-3911">
          <mxGeometry x="670" y="930" width="10" height="10" as="geometry" />
        </mxCell>
        <mxCell id="cPIrNWwGML68DfH43bNu-3879" value="13" style="rounded=0;whiteSpace=wrap;html=1;fontSize=24;" vertex="1" parent="cPIrNWwGML68DfH43bNu-3911">
          <mxGeometry x="680" y="810" width="130" height="130" as="geometry" />
        </mxCell>
        <mxCell id="cPIrNWwGML68DfH43bNu-3880" value="2" style="rounded=0;whiteSpace=wrap;html=1;fontSize=24;" vertex="1" parent="cPIrNWwGML68DfH43bNu-3911">
          <mxGeometry x="810" y="920" width="20" height="20" as="geometry" />
        </mxCell>
        <mxCell id="cPIrNWwGML68DfH43bNu-3881" value="12" style="rounded=0;whiteSpace=wrap;html=1;fontSize=24;" vertex="1" parent="cPIrNWwGML68DfH43bNu-3911">
          <mxGeometry x="560" y="810" width="120" height="120" as="geometry" />
        </mxCell>
        <mxCell id="cPIrNWwGML68DfH43bNu-3882" value="8" style="rounded=0;whiteSpace=wrap;html=1;fontSize=24;" vertex="1" parent="cPIrNWwGML68DfH43bNu-3911">
          <mxGeometry x="1010" y="920" width="80" height="80" as="geometry" />
        </mxCell>
        <mxCell id="cPIrNWwGML68DfH43bNu-3883" value="36" style="rounded=0;whiteSpace=wrap;html=1;fontSize=24;" vertex="1" parent="cPIrNWwGML68DfH43bNu-3911">
          <mxGeometry x="1090" y="640" width="360" height="360" as="geometry" />
        </mxCell>
        <mxCell id="cPIrNWwGML68DfH43bNu-3884" value="28" style="rounded=0;whiteSpace=wrap;html=1;fontSize=24;" vertex="1" parent="cPIrNWwGML68DfH43bNu-3911">
          <mxGeometry x="810" y="640" width="280" height="280" as="geometry" />
        </mxCell>
        <mxCell id="cPIrNWwGML68DfH43bNu-3885" value="81" style="rounded=0;whiteSpace=wrap;html=1;fontSize=24;" vertex="1" parent="cPIrNWwGML68DfH43bNu-3911">
          <mxGeometry width="810" height="810" as="geometry" />
        </mxCell>
        <mxCell id="cPIrNWwGML68DfH43bNu-3886" value="64" style="rounded=0;whiteSpace=wrap;html=1;fontSize=24;" vertex="1" parent="cPIrNWwGML68DfH43bNu-3911">
          <mxGeometry x="810" width="640" height="640" as="geometry" />
        </mxCell>
      </root>
    </mxGraphModel>
  </diagram>
</mxfile>
